<?xml version="1.0" standalone="no"?>
<!DOCTYPE svg PUBLIC "-//W3C//DTD SVG 20010904//EN"
 "http://www.w3.org/TR/2001/REC-SVG-20010904/DTD/svg10.dtd">
<svg version="1.0" xmlns="http://www.w3.org/2000/svg"
 width="700.000000pt" height="700.000000pt" viewBox="0 0 700.000000 700.000000"
 preserveAspectRatio="xMidYMid meet">
<metadata>
Created by potrace 1.11, written by Peter Selinger 2001-2013
</metadata>
<g transform="translate(0.000000,700.000000) scale(0.100000,-0.100000)"
fill="#000000" stroke="none">
<path d="M3315 6990 c-865 -45 -1669 -404 -2285 -1020 -557 -556 -899 -1256
-1000 -2042 -30 -238 -30 -618 0 -856 101 -786 443 -1486 1000 -2042 577 -578
1312 -926 2135 -1011 142 -15 528 -15 670 0 702 73 1335 334 1877 773 145 117
379 351 496 496 439 542 700 1175 773 1877 15 142 15 528 0 670 -85 824 -433
1557 -1011 2135 -556 557 -1256 899 -2042 1000 -80 10 -423 31 -458 28 -8 0
-78 -4 -155 -8z m2302 -1092 c13 -12 23 -33 23 -48 0 -52 -91 -209 -268 -460
-31 -44 -31 -48 -47 -240 -37 -471 -66 -736 -86 -805 -83 -277 -394 -577 -649
-626 -130 -24 -212 -85 -269 -196 -39 -79 -57 -143 -85 -311 -20 -121 -30
-154 -69 -234 -59 -120 -137 -236 -262 -388 -158 -194 -233 -244 -525 -350
-194 -69 -282 -114 -352 -178 -73 -68 -111 -144 -178 -355 -63 -197 -115 -300
-193 -384 -152 -162 -338 -244 -557 -244 -328 1 -626 208 -717 498 -23 75 -25
95 -21 201 6 135 29 208 103 328 105 168 228 267 515 414 293 151 348 226 429
590 38 170 79 293 122 367 40 68 281 319 394 410 125 101 210 147 343 183 325
90 438 189 462 406 12 114 23 151 72 249 113 224 326 429 513 494 76 26 388
89 721 145 l259 43 63 114 c35 63 99 173 143 246 43 72 79 136 79 142 0 17 11
13 37 -11z"/>
</g>
</svg>
