<?xml version="1.0" standalone="no"?>
<!DOCTYPE svg PUBLIC "-//W3C//DTD SVG 20010904//EN"
 "http://www.w3.org/TR/2001/REC-SVG-20010904/DTD/svg10.dtd">
<svg version="1.0" xmlns="http://www.w3.org/2000/svg"
 width="1264.000000pt" height="1264.000000pt" viewBox="0 0 1264.000000 1264.000000"
 preserveAspectRatio="xMidYMid meet">
<metadata>
Created by potrace 1.11, written by Peter Selinger 2001-2013
</metadata>
<g transform="translate(0.000000,1264.000000) scale(0.100000,-0.100000)"
fill="#000000" stroke="none">
<path d="M10208 11284 c-2 -2 -40 -6 -83 -9 -95 -6 -190 -15 -225 -20 -14 -2
-49 -7 -79 -10 -30 -4 -61 -8 -70 -10 -9 -1 -52 -8 -96 -15 -44 -7 -89 -14
-100 -17 -11 -2 -29 -6 -40 -8 -11 -2 -33 -6 -50 -10 -16 -3 -40 -8 -52 -11
-12 -2 -34 -9 -48 -14 -14 -5 -25 -8 -25 -6 0 2 -33 -5 -72 -15 -40 -11 -84
-22 -96 -25 -13 -2 -43 -11 -65 -19 -23 -8 -47 -15 -54 -15 -6 0 -24 -5 -40
-12 -15 -6 -37 -13 -48 -15 -10 -2 -22 -7 -25 -11 -3 -4 -9 -7 -15 -7 -33 -2
-272 -94 -460 -178 -107 -48 -357 -175 -365 -185 -3 -4 -26 -18 -52 -30 -25
-13 -70 -39 -98 -58 -28 -19 -56 -34 -61 -34 -5 0 -9 -5 -9 -12 0 -6 -3 -9 -6
-5 -3 3 -11 1 -18 -4 -6 -5 -51 -37 -101 -71 -49 -33 -91 -65 -93 -70 -2 -4
-10 -8 -18 -8 -8 0 -14 -4 -14 -10 0 -5 -5 -10 -10 -10 -6 0 -16 -5 -23 -10
-7 -6 -37 -29 -67 -52 -30 -24 -60 -47 -66 -53 -6 -5 -26 -21 -44 -35 -18 -14
-38 -30 -45 -37 -6 -6 -39 -34 -74 -63 -34 -28 -74 -63 -90 -78 -193 -183
-351 -347 -351 -363 0 -6 -4 -7 -10 -4 -5 3 -10 1 -10 -4 0 -6 -8 -19 -17 -29
-52 -54 -207 -245 -253 -312 -13 -19 -27 -37 -30 -40 -3 -3 -9 -12 -15 -21 -5
-9 -49 -74 -96 -145 -138 -207 -259 -427 -379 -689 -32 -69 -140 -341 -144
-360 -1 -5 -11 -35 -21 -65 -11 -30 -19 -57 -20 -60 0 -3 -3 -9 -6 -15 -4 -5
-10 -26 -15 -45 -11 -49 -11 -49 -14 -55 -1 -3 -4 -9 -5 -15 -1 -5 -4 -12 -5
-15 -1 -3 -3 -8 -4 -12 -1 -5 -4 -12 -7 -18 -4 -5 -5 -18 -4 -27 2 -10 0 -18
-4 -18 -4 0 -8 -8 -9 -17 -2 -22 -10 -58 -12 -58 -1 0 -3 -7 -5 -15 -2 -8 -6
-26 -9 -40 -3 -14 -7 -35 -10 -48 -3 -13 -7 -31 -10 -40 -3 -9 -8 -30 -11 -47
-2 -16 -10 -57 -16 -90 -6 -33 -13 -71 -15 -85 -3 -14 -7 -36 -10 -50 -7 -34
-11 -63 -19 -140 -4 -36 -9 -74 -11 -85 -2 -11 -7 -58 -10 -105 -3 -47 -8
-101 -11 -120 -3 -19 -7 -407 -10 -862 l-4 -827 54 1 55 2 18 80 c10 45 18 83
19 86 1 3 4 14 8 25 3 11 8 31 11 45 2 14 9 37 14 51 6 15 8 30 5 33 -4 3 -2
6 3 6 5 0 10 8 11 18 2 24 28 114 50 172 3 8 7 20 8 25 6 23 105 283 119 310
9 17 16 34 16 38 0 16 143 312 162 335 6 6 7 12 3 12 -5 0 0 9 10 20 10 11 14
20 9 20 -5 0 -4 4 1 8 10 7 48 72 70 119 5 13 13 23 18 23 4 0 7 4 7 9 0 12
63 115 73 119 4 2 7 8 7 14 0 5 11 24 25 42 14 18 25 37 25 42 0 5 14 24 30
43 17 18 30 37 30 41 0 5 52 79 87 125 4 6 21 28 37 50 17 22 38 49 48 60 47
53 138 171 138 178 0 5 5 5 10 2 6 -3 10 -2 10 4 0 13 78 98 216 235 157 157
222 217 389 355 74 61 236 181 244 181 6 0 11 4 11 8 0 4 14 16 32 26 17 11
39 25 47 33 9 7 20 13 25 12 5 0 12 4 15 9 5 8 39 30 167 109 46 29 133 79
184 106 30 16 78 42 106 58 28 16 54 26 57 22 4 -3 7 -1 7 6 0 7 5 9 10 6 6
-3 10 -1 10 5 0 6 4 9 9 6 5 -4 11 -3 13 1 4 10 80 47 91 45 4 -1 7 2 7 8 0 6
3 9 8 8 12 -3 82 25 82 34 0 4 6 8 13 8 13 0 110 36 167 62 14 6 30 13 35 14
6 2 67 23 138 48 70 24 130 45 132 46 3 0 10 2 17 4 7 3 27 8 43 12 17 4 32 8
35 9 109 33 117 35 147 38 13 1 23 6 23 11 0 5 3 7 6 4 3 -4 20 -2 37 3 34 10
94 21 115 22 6 0 12 4 12 7 0 4 12 8 28 8 25 0 68 7 102 17 8 3 35 7 60 10 25
3 70 10 100 15 30 5 78 11 105 14 28 3 70 8 95 11 91 12 172 16 455 22 296 5
371 0 165 -12 -63 -3 -135 -8 -160 -11 -97 -9 -127 -13 -180 -20 -30 -4 -67
-8 -82 -8 -16 -1 -28 -4 -28 -8 0 -3 -13 -5 -30 -4 -16 1 -30 -1 -30 -4 0 -4
-6 -7 -12 -7 -24 -1 -133 -20 -133 -23 0 -1 -9 -3 -20 -5 -58 -10 -115 -22
-125 -25 -3 -1 -9 -3 -15 -5 -5 -1 -14 -3 -20 -5 -5 -1 -14 -3 -20 -4 -111
-21 -513 -152 -650 -212 -22 -10 -42 -18 -45 -19 -11 -3 -66 -28 -92 -42 -15
-7 -30 -14 -33 -13 -3 0 -28 -11 -55 -25 -27 -14 -53 -26 -57 -27 -17 -2 -225
-115 -346 -187 -70 -42 -136 -80 -147 -86 -11 -5 -20 -13 -20 -17 0 -5 -4 -8
-10 -8 -5 0 -27 -12 -48 -27 -22 -16 -68 -48 -103 -72 -63 -43 -204 -150 -265
-200 -172 -142 -227 -193 -389 -356 -152 -153 -235 -245 -358 -400 -84 -105
-301 -414 -316 -450 -2 -5 -29 -50 -59 -100 -96 -157 -303 -579 -327 -667 -2
-5 -4 -10 -5 -13 -1 -3 -3 -8 -5 -12 -1 -5 -7 -21 -14 -38 -47 -111 -173 -528
-196 -649 -2 -12 -4 -21 -5 -21 -1 0 -3 -8 -5 -17 -3 -16 6 -18 73 -18 466 -3
1841 7 1922 14 30 3 82 8 115 12 33 3 78 7 100 9 22 2 40 4 40 5 0 1 18 3 40
5 22 2 54 6 70 10 31 6 40 8 115 19 62 10 85 14 85 16 0 1 9 3 20 5 11 1 32 5
48 9 15 3 39 8 53 11 192 40 474 125 674 203 63 24 121 45 128 45 6 0 12 4 12
9 0 4 5 8 11 8 6 0 40 13 76 30 35 16 69 30 74 30 5 0 9 5 9 12 0 6 3 9 6 5 8
-7 231 105 363 183 52 30 97 53 99 52 3 -2 9 3 14 12 5 9 14 16 20 16 6 0 26
11 44 25 18 14 35 25 38 25 9 0 101 64 104 72 2 4 8 8 13 8 5 0 37 21 71 47
35 25 82 60 106 77 23 17 55 41 70 54 15 13 43 35 62 50 19 14 42 33 51 42 9
8 41 35 70 60 179 153 421 401 581 595 34 41 169 220 193 256 16 24 32 46 35
49 14 13 200 306 200 315 0 3 15 29 33 58 43 66 257 503 257 523 0 3 6 20 14
37 42 95 138 367 129 367 -3 0 0 7 7 15 6 8 9 18 6 24 -3 5 -2 11 3 13 6 1 12
14 14 28 2 14 6 32 10 40 3 8 9 29 13 45 10 40 11 44 14 50 3 7 5 13 15 65 10
53 12 59 15 63 4 5 11 43 11 60 0 9 5 17 10 17 6 0 8 4 5 8 -4 6 10 87 25 145
0 1 2 16 4 32 4 30 9 63 18 120 3 17 9 59 13 95 4 36 8 67 9 70 1 4 9 79 22
205 2 22 6 419 9 883 l6 843 -1215 -2 c-669 0 -1217 -3 -1219 -5z"/>
<path d="M4 9017 c3 -353 7 -656 10 -674 2 -18 7 -61 11 -95 7 -68 9 -78 24
-178 12 -71 12 -69 36 -185 21 -103 32 -148 35 -152 2 -2 4 -7 5 -13 1 -5 4
-13 5 -17 1 -5 2 -11 1 -15 0 -4 7 -24 15 -45 9 -21 16 -39 15 -40 -1 -4 5
-26 24 -78 9 -27 17 -56 18 -62 0 -7 4 -13 9 -13 5 0 6 -5 3 -10 -4 -6 -3 -16
2 -23 5 -7 18 -34 28 -62 10 -27 27 -70 37 -95 49 -110 70 -156 78 -170 5 -8
27 -52 50 -97 23 -45 52 -98 65 -117 13 -19 21 -37 17 -40 -3 -3 0 -6 6 -6 7
0 12 -7 12 -15 0 -9 6 -18 13 -21 8 -3 14 -10 14 -17 0 -20 235 -354 273 -387
3 -3 28 -32 55 -65 57 -68 297 -309 371 -371 27 -23 59 -50 71 -60 11 -11 31
-26 43 -34 12 -8 34 -25 48 -38 15 -12 52 -39 82 -59 30 -21 57 -41 60 -44 10
-12 249 -159 259 -159 6 0 11 -5 11 -11 0 -5 4 -8 9 -5 5 4 11 2 13 -3 5 -13
360 -186 403 -196 6 -1 24 -8 40 -14 48 -20 197 -73 230 -82 17 -4 55 -15 85
-24 30 -9 63 -18 73 -20 50 -14 89 -23 127 -30 14 -3 36 -7 50 -11 14 -3 32
-7 40 -8 34 -6 107 -18 135 -23 60 -10 166 -23 235 -29 30 -2 116 -6 190 -8
74 -2 137 -5 140 -6 3 -1 9 -2 14 -1 12 2 448 2 461 0 6 -1 14 -1 19 0 12 2
448 2 461 0 6 -1 14 -1 19 0 24 5 458 2 463 -2 3 -3 12 -3 20 0 8 3 40 6 71 7
l57 1 -2 540 c0 297 -2 549 -2 560 -1 11 -1 27 -1 35 0 8 -2 56 -6 105 -3 50
-6 109 -7 132 -1 24 -5 43 -8 43 -4 0 -6 15 -5 33 2 17 0 36 -3 42 -3 5 -6 21
-7 35 -1 14 -6 41 -9 60 -4 19 -7 43 -7 52 1 10 -4 20 -9 23 -5 4 -7 10 -4 16
6 9 -34 191 -67 304 -33 112 -92 281 -133 380 -5 11 -9 22 -10 25 -17 49 -98
216 -108 222 -7 4 -9 8 -5 8 11 0 -153 295 -173 310 -3 3 -8 10 -10 15 -11 26
-73 115 -80 115 -5 0 -9 5 -9 11 0 9 -42 72 -60 89 -3 3 -21 25 -40 50 -47 61
-58 75 -105 127 -22 25 -48 55 -58 67 -63 72 -221 225 -316 306 -30 25 -59 50
-65 55 -6 6 -38 31 -71 55 -33 25 -62 48 -65 51 -9 12 -275 186 -320 210 -25
13 -47 26 -50 29 -10 10 -245 128 -320 160 -41 17 -88 38 -105 45 -27 12 -266
93 -340 115 -163 49 -426 99 -605 116 -30 3 -71 8 -90 10 -19 3 -453 7 -964 9
l-928 4 6 -642z"/>
<path d="M3957 4664 c-1 -1 -54 -4 -117 -8 -63 -3 -126 -8 -140 -10 -31 -6
-118 -18 -145 -21 -11 -1 -31 -5 -45 -9 -14 -3 -36 -8 -50 -10 -14 -3 -54 -12
-90 -21 -86 -22 -83 -21 -100 -28 -8 -3 -33 -11 -55 -17 -22 -6 -47 -14 -55
-17 -8 -3 -22 -7 -30 -9 -8 -2 -23 -7 -35 -13 -33 -15 -59 -24 -67 -23 -5 1
-8 -3 -8 -10 0 -6 -3 -9 -6 -5 -4 3 -21 -1 -38 -10 -17 -10 -33 -17 -36 -18
-31 -4 -371 -195 -400 -225 -3 -3 -27 -20 -55 -39 -27 -19 -64 -46 -81 -60
-17 -14 -51 -42 -75 -61 -63 -51 -269 -257 -269 -269 0 -6 -4 -11 -8 -11 -4 0
-26 -24 -47 -52 -22 -29 -47 -60 -55 -68 -8 -8 -29 -35 -45 -60 -16 -25 -33
-47 -36 -50 -30 -25 -197 -334 -254 -470 -32 -75 -96 -260 -90 -260 2 0 -3
-16 -11 -35 -8 -19 -12 -35 -9 -35 2 0 0 -11 -5 -25 -5 -14 -12 -36 -14 -48
-3 -12 -8 -33 -11 -47 -3 -14 -7 -38 -10 -55 -3 -16 -8 -41 -10 -55 -9 -43
-26 -206 -29 -275 -1 -22 -5 -46 -9 -52 -5 -7 -4 -13 2 -13 5 0 8 -10 5 -22
-3 -18 -8 -720 -5 -786 1 -11 123 -13 694 -9 380 2 703 6 717 10 14 3 51 8 84
12 103 12 185 28 321 62 55 14 105 26 110 27 6 1 19 7 30 13 11 6 23 11 28 12
23 2 64 15 73 23 7 5 21 11 32 13 63 12 329 146 460 231 45 30 87 54 92 54 6
0 10 4 10 9 0 5 17 20 38 32 20 13 46 31 57 41 11 10 58 50 105 90 79 68 205
192 257 253 113 132 252 329 298 420 11 22 22 42 26 45 3 3 16 29 29 58 13 28
28 52 33 52 6 0 8 3 5 6 -4 3 8 38 26 77 65 142 152 409 140 428 -3 5 -1 9 4
9 9 0 18 41 27 115 2 17 4 30 5 30 2 0 7 23 14 71 13 82 18 130 19 191 1 35 6
63 11 63 5 0 3 6 -3 14 -7 8 -8 16 -4 19 4 3 8 191 8 418 l0 412 -603 1 c-332
1 -604 0 -605 0z"/>
<path d="M5638 4659 c-6 -4 -8 -115 -4 -305 2 -164 5 -316 5 -336 1 -90 58
-352 102 -468 11 -30 25 -68 32 -85 30 -83 165 -321 190 -337 7 -4 8 -8 2 -8
-6 0 -6 -3 1 -8 5 -4 35 -38 66 -77 69 -86 164 -185 179 -185 5 0 7 -4 4 -10
-3 -5 -2 -10 2 -10 5 0 19 -10 33 -23 98 -90 369 -262 429 -273 7 -1 18 -7 24
-13 6 -6 19 -11 29 -11 10 0 18 -4 18 -10 0 -5 9 -10 20 -10 11 0 43 -11 72
-23 29 -13 56 -24 61 -24 42 -5 88 -17 93 -24 3 -5 9 -7 13 -5 4 3 26 1 49 -5
23 -5 59 -12 80 -15 20 -3 51 -8 67 -12 17 -3 253 -6 525 -7 l495 0 0 315 c1
173 -1 319 -4 325 -5 9 -13 84 -15 138 -1 15 -3 27 -6 27 -3 0 -6 10 -7 23 -2
28 -18 103 -23 110 -1 1 -4 11 -6 22 -6 26 -12 49 -14 55 -1 3 -3 10 -4 15 -1
6 -6 19 -10 30 -4 11 -22 56 -39 100 -54 141 -153 315 -247 435 -98 125 -221
247 -335 331 -33 24 -62 47 -65 50 -3 4 -21 15 -40 26 -19 10 -53 30 -75 44
-96 61 -361 169 -450 183 -21 4 -44 11 -50 16 -7 5 -14 8 -16 6 -2 -3 -37 2
-78 9 -41 8 -117 18 -170 21 -122 9 -920 11 -933 3z"/>
</g>
</svg>
