<?xml version="1.0" ?><!DOCTYPE svg  PUBLIC '-//W3C//DTD SVG 1.1//EN'  'http://www.w3.org/Graphics/SVG/1.1/DTD/svg11.dtd'><svg id="Layer_1" style="enable-background:new 0 0 64 64;" version="1.1" viewBox="0 0 64 64" xml:space="preserve" xmlns="http://www.w3.org/2000/svg" xmlns:xlink="http://www.w3.org/1999/xlink"><g><path d="M39.6,35h-3.8v-2.8c0-0.5-0.4-0.9-0.9-0.9V9.5c0-0.1,0-0.1,0-0.2c0,0,0-0.1,0-0.1c0-0.1-0.1-0.2-0.1-0.2c0,0,0,0,0-0.1    c0,0,0,0,0,0c-0.1-0.1-0.1-0.1-0.2-0.2c0,0,0,0-0.1,0c-0.1,0-0.2-0.1-0.3-0.1c0,0-0.1,0-0.1,0c0,0-0.1,0-0.1,0c-0.1,0-0.1,0-0.2,0    c0,0-0.1,0-0.1,0c-0.1,0-0.1,0.1-0.2,0.1c0,0-0.1,0-0.1,0c-0.1,0.1-0.4,0.3-0.6,0.1c-1.1-1.1-2.5-0.6-3.2-0.1c0,0,0,0,0,0    c0,0-0.1,0.1-0.1,0.2c0,0-0.1,0.1-0.1,0.1c0,0.1,0,0.1-0.1,0.2c0,0.1,0,0.1,0,0.2c0,0,0,0,0,0.1v21.7c-0.5,0-0.9,0.4-0.9,0.9V35    h-3.8c-0.5,0-0.9,0.4-0.9,0.9v14.2c0,0.2,0,0.3,0.1,0.5c2.4,3.9,7.9,5.1,8.2,5.2c0.1,0,0.1,0,0.2,0c0,0,0,0,0,0c0,0,0,0,0,0    c0,0,0,0,0,0c0,0,0,0,0,0c0.1,0,0.1,0,0.2,0c0.2,0,5.8-1.2,8.2-5.2c0.1-0.1,0.1-0.3,0.1-0.5V36C40.5,35.4,40.1,35,39.6,35z     M31.3,10.2c0.5,0.5,1,0.7,1.5,0.7c0,0,0.1,0,0.1,0v19.5h-1.9V10.1C31.2,10.1,31.2,10.1,31.3,10.2z M30.1,33.1h3.8v6.5l-1.7,5.8    h-0.5l-1.7-5.8V33.1z M38.6,49.9c-1.8,2.7-5.7,3.8-6.6,4c-0.9-0.2-4.8-1.3-6.6-4V36.9h2.8v2.8c0,0.1,0,0.2,0,0.3l1.9,6.6    c0.1,0.4,0.5,0.7,0.9,0.7h1.9c0.4,0,0.8-0.3,0.9-0.7l1.9-6.6c0-0.1,0-0.2,0-0.3v-2.8h2.8V49.9z"/></g></svg>