<?xml version="1.0" encoding="UTF-8" standalone="no"?>
<svg
   xmlns:dc="http://purl.org/dc/elements/1.1/"
   xmlns:cc="http://creativecommons.org/ns#"
   xmlns:rdf="http://www.w3.org/1999/02/22-rdf-syntax-ns#"
   xmlns:svg="http://www.w3.org/2000/svg"
   xmlns="http://www.w3.org/2000/svg"
   xmlns:sodipodi="http://sodipodi.sourceforge.net/DTD/sodipodi-0.dtd"
   xmlns:inkscape="http://www.inkscape.org/namespaces/inkscape"
   id="Layer_1"
   style="enable-background:new 0 0 64 64;"
   version="1.1"
   viewBox="0 0 64 64"
   xml:space="preserve"
   inkscape:version="0.91 r13725"
   sodipodi:docname="bean.svg"><metadata
     id="metadata11"><rdf:RDF><cc:Work
         rdf:about=""><dc:format>image/svg+xml</dc:format><dc:type
           rdf:resource="http://purl.org/dc/dcmitype/StillImage" /><dc:title></dc:title></cc:Work></rdf:RDF></metadata><defs
     id="defs9" /><sodipodi:namedview
     pagecolor="#ffffff"
     bordercolor="#666666"
     borderopacity="1"
     objecttolerance="10"
     gridtolerance="10"
     guidetolerance="10"
     inkscape:pageopacity="0"
     inkscape:pageshadow="2"
     inkscape:window-width="1366"
     inkscape:window-height="709"
     id="namedview7"
     showgrid="false"
     inkscape:zoom="3.6875"
     inkscape:cx="4.4442977"
     inkscape:cy="-0.43389831"
     inkscape:window-x="0"
     inkscape:window-y="0"
     inkscape:window-maximized="1"
     inkscape:current-layer="Layer_1" /><style
     id="style4140"
     type="text/css">
	.st0{fill:none;stroke:#FF0000;stroke-miterlimit:10;}
</style><g
     id="g4142"
     transform="matrix(0.24491923,0,0,0.24491923,0.65033856,0.66258452)"
     style="fill:#636c72;fill-opacity:1"><path
       id="path4144"
       d="M 207.2,48.8 C 195.9,37.5 180,32 163,32 l 0,8 c 16,0 29.1,5.1 38.6,14.5 12.5,12.5 17.1,31.8 12.8,54.3 -4.4,23.6 -17.9,47.6 -38,67.7 C 151.7,201.2 120.5,216 93,216 77.2,216 63.8,211 54.4,201.6 41.9,189.1 37.3,169.8 41.6,147.3 46,123.7 59.5,99.7 79.6,79.6 104.3,54.8 135.5,40 163,40 l 0,-8 c 0,0 0,0 0,0 -28.5,0 -61.9,14.7 -89.1,41.9 -43.7,43.7 -55,103.4 -25.1,133.3 11.3,11.3 26.9,16.7 44.2,16.7 28.5,0 61.9,-14.6 89.1,-41.8 43.7,-43.8 55,-103.4 25.1,-133.3 z"
       inkscape:connector-curvature="0"
       style="fill:#636c72;fill-opacity:1" /><path
       id="path4146"
       d="m 155,81.8 c -4.4,3.1 -8.9,6.6 -13.5,10.5 -0.6,0.5 -1.1,1 -1.7,1.5 l -0.9,0.8 -0.4,0.4 -0.1,0.1 -0.1,0 c -0.1,0.1 0.1,-0.1 -0.2,0.2 l -0.2,0.2 c -0.5,0.5 -1.1,1 -1.6,1.5 -0.6,0.6 -1.2,1.3 -1.8,1.9 -2.3,2.5 -4.4,5.2 -6.3,8.1 -1.9,2.9 -3.5,6 -4.9,9.1 -1.4,3.1 -2.5,6.1 -3.5,9 -1,2.9 -2,5.6 -3,8 -1,2.5 -2.1,4.8 -3.4,7 -1.3,2.2 -2.7,4.3 -4.3,6.3 -0.4,0.5 -0.8,1 -1.2,1.5 l -0.6,0.7 -0.3,0.4 -0.2,0.2 -0.1,0.1 0,0 c 0,0 0.2,-0.1 0.1,0 -1,1.1 -2,2.1 -3,3.2 -1,1.1 -1.9,1.9 -2.8,2.9 -0.5,0.5 -0.9,1 -1.4,1.4 -0.5,0.5 -1,0.9 -1.4,1.4 -1.9,1.9 -3.8,3.7 -5.7,5.5 -1.9,1.8 -3.7,3.5 -5.5,5.1 -1.8,1.7 -3.5,3.3 -5.2,4.8 C 68.1,186 59,194.2 59,194.2 c -0.6,0.6 -0.9,1.5 -0.5,2.3 0.5,1 1.7,1.5 2.7,1 l 0,0 c 0,0 0.7,-0.3 2,-1 1.3,-0.6 3.2,-1.6 5.6,-2.8 2.4,-1.2 5.3,-2.8 8.6,-4.7 3.3,-1.9 7,-4 10.9,-6.5 2,-1.2 4,-2.6 6.1,-3.9 2.1,-1.4 4.2,-2.9 6.4,-4.4 2.2,-1.6 4.5,-3.2 6.7,-4.9 0.6,-0.4 1.1,-0.9 1.7,-1.3 0.6,-0.5 1.2,-0.9 1.7,-1.4 1.1,-0.9 2.4,-1.9 3.5,-2.9 1.1,-0.9 2.2,-1.9 3.3,-2.8 0.6,-0.6 1.2,-1.2 1.9,-1.8 0.6,-0.6 1.2,-1.2 1.7,-1.8 2.3,-2.4 4.5,-5.1 6.4,-8 3.9,-5.8 6.5,-12.4 8.6,-18.1 1,-2.9 2,-5.6 3,-8.1 1,-2.5 2.1,-4.8 3.3,-7.1 1.2,-2.2 2.7,-4.3 4.2,-6.3 l 1.1,-1.4 c 0.5,-0.5 1,-1.1 1.5,-1.6 l 0.2,-0.2 c -0.2,0.2 0,0 -0.1,0.1 l 0,0 0.1,-0.1 0.4,-0.4 0.7,-0.8 c 0.5,-0.5 0.9,-1 1.4,-1.5 3.8,-4 7.6,-7.8 11.4,-11.3 1.9,-1.8 3.7,-3.5 5.5,-5.1 1.8,-1.7 3.5,-3.3 5.2,-4.8 6.8,-6.1 12.5,-11.2 16.4,-14.8 4,-3.6 6.3,-5.7 6.3,-5.7 0.6,-0.6 0.9,-1.5 0.5,-2.3 -0.5,-1 -1.7,-1.5 -2.7,-1 l 0,0 c 0,0 -2.9,1.3 -7.7,3.8 -2.4,1.2 -5.3,2.8 -8.6,4.7 -3.3,1.9 -7,4 -10.9,6.5 -2,1.2 -4,2.6 -6.1,3.9 -2,1.1 -4.2,2.6 -6.4,4.1 z"
       inkscape:connector-curvature="0"
       style="fill:#636c72;fill-opacity:1" /></g></svg>