<?xml version="1.0" encoding="UTF-8" standalone="no"?>
<svg
   xmlns:dc="http://purl.org/dc/elements/1.1/"
   xmlns:cc="http://creativecommons.org/ns#"
   xmlns:rdf="http://www.w3.org/1999/02/22-rdf-syntax-ns#"
   xmlns:svg="http://www.w3.org/2000/svg"
   xmlns="http://www.w3.org/2000/svg"
   xmlns:sodipodi="http://sodipodi.sourceforge.net/DTD/sodipodi-0.dtd"
   xmlns:inkscape="http://www.inkscape.org/namespaces/inkscape"
   id="Layer_1"
   style="enable-background:new 0 0 64 64;"
   version="1.1"
   viewBox="0 0 64 64"
   xml:space="preserve"
   inkscape:version="0.91 r13725"
   sodipodi:docname="edit.svg"><metadata
     id="metadata21"><rdf:RDF><cc:Work
         rdf:about=""><dc:format>image/svg+xml</dc:format><dc:type
           rdf:resource="http://purl.org/dc/dcmitype/StillImage" /><dc:title></dc:title></cc:Work></rdf:RDF></metadata><defs
     id="defs19" /><sodipodi:namedview
     pagecolor="#ffffff"
     bordercolor="#666666"
     borderopacity="1"
     objecttolerance="10"
     gridtolerance="10"
     guidetolerance="10"
     inkscape:pageopacity="0"
     inkscape:pageshadow="2"
     inkscape:window-width="1366"
     inkscape:window-height="709"
     id="namedview17"
     showgrid="false"
     inkscape:zoom="5.2149125"
     inkscape:cx="-24.135887"
     inkscape:cy="24.452692"
     inkscape:window-x="0"
     inkscape:window-y="0"
     inkscape:window-maximized="1"
     inkscape:current-layer="Layer_1" /><style
     type="text/css"
     id="style3">
	.st0{fill:#ECF0F1;}
	.st1{fill:#BDC3C7;}
	.st2{fill:#282828;}
</style><g
     id="g3347"
     transform="matrix(2.4115223,0,0,2.4115223,3.0617324,3.061431)"
     style="fill:#636c72;fill-opacity:1"><path
       id="path3337"
       d="m 19.607,18.746 c 0,0.881 -0.716,1.624 -1.597,1.624 l -12.779,0 c -0.881,0 -1.597,-0.743 -1.597,-1.624 l 0,-12.779 c 0,-0.881 0.716,-1.571 1.597,-1.571 l 7.454,0 0,-1.064 -7.454,0 C 3.763,3.332 2.569,4.5 2.569,5.968 l 0,12.778 c 0,1.468 1.194,2.688 2.662,2.688 l 12.778,0 c 1.468,0 2.662,-1.221 2.662,-2.688 l 0,-7.428 -1.065,0 0,7.428 z"
       inkscape:connector-curvature="0"
       style="fill:#636c72;fill-opacity:1" /><path
       id="path3339"
       d="M 20.807,3.17 C 20.003,2.365 18.6,2.365 17.795,3.17 l -7.143,7.143 c -0.068,0.068 -0.117,0.154 -0.14,0.247 L 9.76,13.571 c -0.045,0.181 0.008,0.373 0.14,0.506 0.101,0.101 0.237,0.156 0.376,0.156 0.043,0 0.086,-0.005 0.129,-0.016 l 3.012,-0.753 c 0.094,-0.023 0.179,-0.072 0.247,-0.14 l 7.143,-7.143 c 0.402,-0.402 0.624,-0.937 0.624,-1.506 0,-0.569 -0.221,-1.103 -0.624,-1.505 z m -7.791,9.297 -2.008,0.502 0.502,-2.008 5.909,-5.909 1.506,1.506 -5.909,5.909 z M 20.054,5.428 19.678,5.804 18.172,4.298 18.548,3.922 c 0.402,-0.402 1.104,-0.402 1.506,0 0.201,0.201 0.312,0.468 0.312,0.753 0,0.285 -0.111,0.552 -0.312,0.753 z"
       inkscape:connector-curvature="0"
       style="fill:#636c72;fill-opacity:1" /></g></svg>