<?xml version="1.0" encoding="UTF-8" standalone="no"?>
<svg
   xmlns:dc="http://purl.org/dc/elements/1.1/"
   xmlns:cc="http://creativecommons.org/ns#"
   xmlns:rdf="http://www.w3.org/1999/02/22-rdf-syntax-ns#"
   xmlns:svg="http://www.w3.org/2000/svg"
   xmlns="http://www.w3.org/2000/svg"
   xmlns:sodipodi="http://sodipodi.sourceforge.net/DTD/sodipodi-0.dtd"
   xmlns:inkscape="http://www.inkscape.org/namespaces/inkscape"
   id="Layer_1"
   style="enable-background:new 0 0 64 64;"
   version="1.1"
   viewBox="0 0 64 64"
   xml:space="preserve"
   inkscape:version="0.91 r13725"
   sodipodi:docname="1498731557_set_of_garden_tools.svg"><metadata
     id="metadata17"><rdf:RDF><cc:Work
         rdf:about=""><dc:format>image/svg+xml</dc:format><dc:type
           rdf:resource="http://purl.org/dc/dcmitype/StillImage" /></cc:Work></rdf:RDF></metadata><defs
     id="defs15" /><sodipodi:namedview
     pagecolor="#ffffff"
     bordercolor="#666666"
     borderopacity="1"
     objecttolerance="10"
     gridtolerance="10"
     guidetolerance="10"
     inkscape:pageopacity="0"
     inkscape:pageshadow="2"
     inkscape:window-width="1366"
     inkscape:window-height="709"
     id="namedview13"
     showgrid="false"
     inkscape:zoom="3.6875"
     inkscape:cx="71.59322"
     inkscape:cy="32"
     inkscape:window-x="0"
     inkscape:window-y="0"
     inkscape:window-maximized="1"
     inkscape:current-layer="Layer_1" /><style
     type="text/css"
     id="style3">
	.st0{fill:#282828;}
</style><g
     id="g5"
     style="fill:#636c72;fill-opacity:1"><path
       class="st0"
       d="M19.4,16.2c-0.4,0-0.8,0.3-0.9,0.7l-1.3,4.8l-1.3-4.8c-0.1-0.4-0.5-0.8-1-0.7c-0.5,0-0.9,0.3-1,0.8l-1,4.7    l-1.4-4.8c-0.1-0.4-0.5-0.7-0.9-0.7c-0.4,0-0.8,0.2-1,0.5c-0.2,0.4-4.4,8.8,0.7,15.5c0.7,0.8,1.2,1.3,1.7,1.7c0,0,0,0,0,0.1    l0,12.7c0,0.1,0,1.5,0.9,2.4c0.4,0.4,1,0.8,2.1,0.8c2.2,0,3-2.1,3-3.5V34.3c0.6-0.4,1.1-1.1,1.8-2.2c4.3-6.7,0.6-15,0.5-15.3    C20.2,16.4,19.8,16.1,19.4,16.2z M16,46.5c0,0.1,0,1.5-1,1.5c-0.4,0-0.5-0.1-0.6-0.2c-0.3-0.3-0.3-0.8-0.3-1l0-11.9    c0.3,0.1,0.7,0.1,1,0.1l0.2,0c0,0,0.1,0,0.1,0c0.2,0,0.4,0,0.5,0V46.5z M18.2,31c-1.3,2-1.8,2-2.8,2l-0.3,0c-1,0-1.4,0-3.2-2    c-2.7-3.6-2.2-7.9-1.4-10.6l1.7,5.7c0.1,0.4,0.6,0.8,1,0.7c0.5,0,0.8-0.3,0.9-0.8l1-4.5l1.2,4.4c0.1,0.4,0.5,0.7,1,0.7h0    c0.5,0,0.8-0.3,1-0.7l1.4-5.1C20.1,23.5,20.4,27.6,18.2,31z"
       id="path7"
       style="fill:#636c72;fill-opacity:1" /><path
       class="st0"
       d="M32.2,16.2c-0.3-0.1-0.6,0-0.9,0.1c-6.2,4.5-5.5,16-5.5,16.5c0,0.4,0.3,0.8,0.7,0.9l2.6,0.9l0,12.3    c0,0.1,0,1.5,0.9,2.4c0.4,0.4,1,0.8,2.1,0.8c2.2,0,3-2,3-3.3V34.5l2.6-0.9c0.4-0.1,0.7-0.6,0.7-1.1C36.9,18.1,32.7,16.3,32.2,16.2    z M33.1,46.7c0,0.2-0.1,1.3-1,1.3c-0.4,0-0.5-0.1-0.6-0.2c-0.3-0.3-0.3-0.8-0.3-1V35.2l0.5,0.2c0.1,0,0.2,0.1,0.3,0.1    c0.1,0,0.2,0,0.3,0l0.8-0.3V46.7z M32,33.4L27.8,32c0-2.3,0.1-10.1,4.1-13.6c0.9,0.9,3.3,3.9,4.4,13.6L32,33.4z"
       id="path9"
       style="fill:#636c72;fill-opacity:1" /><path
       class="st0"
       d="M55.8,19.6c-0.3-0.5-0.9-0.6-1.4-0.4l-3.3,1.9c-0.2,0.1-0.3,0.3-0.4,0.4l-1.4,3.1v-7.6c0-0.6-0.4-1-1-1    s-1,0.4-1,1v7.5l-1.4-3.1c-0.1-0.2-0.2-0.3-0.4-0.4l-3.3-1.9c-0.5-0.3-1.1-0.1-1.4,0.4c-0.3,0.5-0.1,1.1,0.4,1.4l3,1.8l3.1,6.7    v3.8h-2.7c-0.6,0-1,0.4-1,1s0.4,1,1,1h0.6l0,11.6c0,0.1,0,1.5,0.9,2.4c0.4,0.4,1,0.8,2.1,0.8c2.2,0,3-2,3-3.3V35.2h0.6    c0.6,0,1-0.4,1-1s-0.4-1-1-1h-2.5v-3.7l3.1-6.7l3-1.8C55.9,20.7,56.1,20.1,55.8,19.6z M49.2,46.7c0,0.2-0.1,1.3-1,1.3    c-0.4,0-0.5-0.1-0.6-0.2c-0.3-0.3-0.3-0.8-0.3-1V35.2h2V46.7z"
       id="path11"
       style="fill:#636c72;fill-opacity:1" /></g><style
     id="style3-6"
     type="text/css">
	.st0{fill:#ECF0F1;}
	.st1{fill:#BDC3C7;}
	.st2{fill:#282828;}
</style></svg>