<?xml version="1.0" encoding="UTF-8" standalone="no"?>
<svg
   xmlns:dc="http://purl.org/dc/elements/1.1/"
   xmlns:cc="http://creativecommons.org/ns#"
   xmlns:rdf="http://www.w3.org/1999/02/22-rdf-syntax-ns#"
   xmlns:svg="http://www.w3.org/2000/svg"
   xmlns="http://www.w3.org/2000/svg"
   xmlns:sodipodi="http://sodipodi.sourceforge.net/DTD/sodipodi-0.dtd"
   xmlns:inkscape="http://www.inkscape.org/namespaces/inkscape"
   id="Layer_1"
   style="enable-background:new 0 0 64 64;"
   version="1.1"
   viewBox="0 0 64 64"
   xml:space="preserve"
   inkscape:version="0.91 r13725"
   sodipodi:docname="image.svg"><metadata
     id="metadata21"><rdf:RDF><cc:Work
         rdf:about=""><dc:format>image/svg+xml</dc:format><dc:type
           rdf:resource="http://purl.org/dc/dcmitype/StillImage" /><dc:title /></cc:Work></rdf:RDF></metadata><defs
     id="defs19" /><sodipodi:namedview
     pagecolor="#ffffff"
     bordercolor="#666666"
     borderopacity="1"
     objecttolerance="10"
     gridtolerance="10"
     guidetolerance="10"
     inkscape:pageopacity="0"
     inkscape:pageshadow="2"
     inkscape:window-width="1366"
     inkscape:window-height="709"
     id="namedview17"
     showgrid="false"
     inkscape:zoom="5.2149125"
     inkscape:cx="-1.316712"
     inkscape:cy="24.452692"
     inkscape:window-x="0"
     inkscape:window-y="0"
     inkscape:window-maximized="1"
     inkscape:current-layer="Layer_1" /><style
     type="text/css"
     id="style3">
	.st0{fill:#ECF0F1;}
	.st1{fill:#BDC3C7;}
	.st2{fill:#282828;}
</style><g
     id="g4156"
     transform="matrix(2.2194039,0,0,2.2194039,5.3660435,5.3660435)"
     style="fill:#636c72;fill-opacity:1"><path
       id="path4146"
       d="m 19.235,1.75 -14.47,0 C 3.103,1.75 1.75,3.102 1.75,4.765 l 0,14.471 c 0,1.662 1.352,3.015 3.015,3.015 l 14.471,0 c 1.662,0 3.015,-1.352 3.015,-3.015 l 0,-14.471 C 22.25,3.102 20.898,1.75 19.235,1.75 Z m 1.809,17.485 c 0,0.997 -0.811,1.809 -1.809,1.809 l -14.47,0 c -0.997,0 -1.809,-0.811 -1.809,-1.809 l 0,-2.181 4.866,-5.407 6.573,5.975 3.635,-3.029 3.015,2.512 0,2.13 z m 0,-3.699 -3.015,-2.512 -3.601,3 -6.691,-6.084 -4.781,5.312 0,-10.487 c 0,-0.997 0.811,-1.809 1.809,-1.809 l 14.471,0 c 0.997,0 1.809,0.811 1.809,1.809 l 0,10.771 z"
       inkscape:connector-curvature="0"
       style="fill:#636c72;fill-opacity:1" /><path
       id="path4148"
       d="m 16.221,10.794 c 1.662,0 3.015,-1.352 3.015,-3.015 0,-1.663 -1.352,-3.015 -3.015,-3.015 -1.662,0 -3.015,1.352 -3.015,3.015 0,1.663 1.352,3.015 3.015,3.015 z m 0,-4.823 c 0.997,0 1.809,0.811 1.809,1.809 0,0.998 -0.811,1.809 -1.809,1.809 -0.998,0 -1.809,-0.811 -1.809,-1.809 0,-0.998 0.811,-1.809 1.809,-1.809 z"
       inkscape:connector-curvature="0"
       style="fill:#636c72;fill-opacity:1" /></g></svg>