<?xml version="1.0" encoding="UTF-8" standalone="no"?>
<svg
   xmlns:dc="http://purl.org/dc/elements/1.1/"
   xmlns:cc="http://creativecommons.org/ns#"
   xmlns:rdf="http://www.w3.org/1999/02/22-rdf-syntax-ns#"
   xmlns:svg="http://www.w3.org/2000/svg"
   xmlns="http://www.w3.org/2000/svg"
   xmlns:sodipodi="http://sodipodi.sourceforge.net/DTD/sodipodi-0.dtd"
   xmlns:inkscape="http://www.inkscape.org/namespaces/inkscape"
   id="Layer_1"
   style="enable-background:new 0 0 64 64;"
   version="1.1"
   viewBox="0 0 64 64"
   xml:space="preserve"
   inkscape:version="0.91 r13725"
   sodipodi:docname="shop_shopping.svg"><metadata
     id="metadata21"><rdf:RDF><cc:Work
         rdf:about=""><dc:format>image/svg+xml</dc:format><dc:type
           rdf:resource="http://purl.org/dc/dcmitype/StillImage" /><dc:title></dc:title></cc:Work></rdf:RDF></metadata><defs
     id="defs19" /><sodipodi:namedview
     pagecolor="#ffffff"
     bordercolor="#666666"
     borderopacity="1"
     objecttolerance="10"
     gridtolerance="10"
     guidetolerance="10"
     inkscape:pageopacity="0"
     inkscape:pageshadow="2"
     inkscape:window-width="1366"
     inkscape:window-height="709"
     id="namedview17"
     showgrid="false"
     inkscape:zoom="3.6875"
     inkscape:cx="27.740569"
     inkscape:cy="32"
     inkscape:window-x="0"
     inkscape:window-y="0"
     inkscape:window-maximized="1"
     inkscape:current-layer="Layer_1" /><style
     type="text/css"
     id="style3">
	.st0{fill:#ECF0F1;}
	.st1{fill:#BDC3C7;}
	.st2{fill:#282828;}
</style><g
     transform="matrix(0.4203428,0,0,0.4203428,4.9390754,5.212332)"
     id="shopping"><g
       id="g15"><g
         id="g17"><path
           inkscape:connector-curvature="0"
           d="m 92.11,119.147 c -6.313,0 -11.449,-5.136 -11.449,-11.449 0,-6.313 5.136,-11.449 11.449,-11.449 6.313,0 11.45,5.136 11.45,11.449 0,6.313 -5.136,11.449 -11.45,11.449 z m 0,-18.898 c -4.107,0 -7.449,3.342 -7.449,7.449 0,4.107 3.342,7.449 7.449,7.449 4.108,0 7.45,-3.342 7.45,-7.449 0,-4.107 -3.341,-7.449 -7.45,-7.449 z"
           style="fill:#505070"
           id="path19" /></g><g
         id="g21"><path
           inkscape:connector-curvature="0"
           d="m 46.753,119.147 c -6.313,0 -11.449,-5.136 -11.449,-11.449 0,-6.313 5.136,-11.449 11.449,-11.449 6.313,0 11.449,5.136 11.449,11.449 0,6.313 -5.136,11.449 -11.449,11.449 z m 0,-18.898 c -4.107,0 -7.449,3.342 -7.449,7.449 0,4.107 3.342,7.449 7.449,7.449 4.107,0 7.449,-3.342 7.449,-7.449 0,-4.107 -3.342,-7.449 -7.449,-7.449 z"
           style="fill:#505070"
           id="path23" /></g><g
         id="g25"><path
           inkscape:connector-curvature="0"
           d="m 96.625,91.147 c -0.002,0 -0.004,0 -0.006,0 L 41.864,91.126 c -4.57,-0.003 -8.516,-3.261 -9.382,-7.747 L 22.351,29.434 c -0.109,-0.585 0.047,-1.188 0.427,-1.646 0.38,-0.458 0.944,-0.723 1.539,-0.723 l 94.649,0 c 1.907,0 3.689,0.939 4.768,2.513 1.079,1.574 1.311,3.575 0.622,5.354 l -18.81,50.09 c -1.422,3.671 -5.004,6.125 -8.921,6.125 z M 26.727,31.064 36.413,82.63 c 0.502,2.599 2.796,4.494 5.454,4.495 l 54.755,0.021 c 0.001,0 0.002,0 0.003,0 2.278,0 4.361,-1.427 5.185,-3.553 l 18.81,-50.089 c 0.223,-0.575 0.152,-1.176 -0.185,-1.668 -0.337,-0.491 -0.872,-0.773 -1.468,-0.773 l -92.24,0 z"
           style="fill:#505070"
           id="path27" /></g><g
         id="g29"><path
           inkscape:connector-curvature="0"
           d="m 24.314,31.064 c -0.907,0 -1.729,-0.621 -1.945,-1.542 L 19.961,19.286 C 19.367,16.763 17.142,15 14.55,15 l -9.133,0 c -1.104,0 -2,-0.896 -2,-2 0,-1.104 0.896,-2 2,-2 l 9.133,0 c 4.457,0 8.284,3.031 9.306,7.37 l 2.408,10.236 c 0.253,1.075 -0.414,2.152 -1.489,2.405 -0.155,0.037 -0.309,0.053 -0.461,0.053 z"
           style="fill:#505070"
           id="path31" /></g><g
         id="g33"><path
           inkscape:connector-curvature="0"
           d="m 60,44 -32.849,0 c -1.104,0 -2,-0.896 -2,-2 0,-1.104 0.896,-2 2,-2 L 60,40 c 1.104,0 2,0.896 2,2 0,1.104 -0.896,2 -2,2 z"
           style="fill:#505070"
           id="path35" /></g></g></g></svg>