<?xml version="1.0" ?><!DOCTYPE svg  PUBLIC '-//W3C//DTD SVG 1.1//EN'  'http://www.w3.org/Graphics/SVG/1.1/DTD/svg11.dtd'><svg id="Layer_1" style="enable-background:new 0 0 64 64;" version="1.1" viewBox="0 0 64 64" xml:space="preserve" xmlns="http://www.w3.org/2000/svg" xmlns:xlink="http://www.w3.org/1999/xlink"><style type="text/css">
	.st0{fill:#ECF0F1;}
	.st1{fill:#BDC3C7;}
	.st2{fill:#282828;}
</style><g><g><path class="st0" d="M6.9,28.4l6.9-7.6c0,0,2.6,2.7,1.6,5.7c14.3,9.8,14.3,9.8,14.3,9.8V24.3h7.2v-9.7h4.8v9.6H49v24.9H30V44     L12.6,29.4C12.6,29.4,9.9,30.2,6.9,28.4z"/><rect class="st1" height="4" width="19" x="30.1" y="34"/><rect class="st1" height="16.3" width="4.6" x="36.9" y="14.6"/><path class="st2" d="M55.4,25.8c-1.8-1.1-4.1-0.8-5.6-0.4v-1.1c0-0.6-0.4-1-1-1h-6.3v-8.7c0-0.6-0.4-1-1-1h-4.4c-0.6,0-1,0.4-1,1     v8.7h-6.3c-0.6,0-1,0.4-1,1v10.1l-12.6-8.4c0.2-0.6,0.3-1.3,0.3-2c-0.1-1.6-0.8-3.1-1.9-4.2c-0.4-0.4-1-0.3-1.4,0.1l-6.8,7.4     c-0.4,0.4-0.3,1,0.1,1.4c1.1,1,2.5,1.6,4.1,1.6c0.1,0,0.2,0,0.3,0c0.5,0,1-0.1,1.4-0.2l16.6,14.7v4.5c0,0.6,0.4,1,1,1h19     c0.6,0,1-0.4,1-1v-7.2c0.1,0,0.3-0.1,0.4-0.2c0.3-0.2,7.6-5.4,7.6-10.4C57.8,28.8,57,26.8,55.4,25.8z M30.8,35.5h17v1h-17V35.5z      M38.2,15.7h2.4v13.9h-2.4V15.7z M36.2,25.3v5.2c0,0.6,0.4,1,1,1h4.4c0.6,0,1-0.4,1-1v-5.2h5.3v8.1h-17v-8.1H36.2z M10.7,28.4     c-0.7,0-1.4-0.1-2.1-0.5l5.2-5.7c0.4,0.6,0.6,1.3,0.6,2c0,1.1-0.3,2.1-1.1,2.9S11.8,28.3,10.7,28.4z M14.1,29.2     c0.3-0.2,0.6-0.5,0.8-0.7c0.2-0.2,0.3-0.3,0.4-0.5l13.5,9v5.2L14.1,29.2z M30.8,48.3v-9.9h17v9.9H30.8z M49.8,39.8V27.5     c1.2-0.4,3.2-0.9,4.5,0c1,0.6,1.5,2,1.5,4.1C55.8,34.5,52,38.1,49.8,39.8z"/></g></g></svg>