<?xml version="1.0" encoding="UTF-8" standalone="no"?>
<svg
   xmlns:dc="http://purl.org/dc/elements/1.1/"
   xmlns:cc="http://creativecommons.org/ns#"
   xmlns:rdf="http://www.w3.org/1999/02/22-rdf-syntax-ns#"
   xmlns:svg="http://www.w3.org/2000/svg"
   xmlns="http://www.w3.org/2000/svg"
   xmlns:sodipodi="http://sodipodi.sourceforge.net/DTD/sodipodi-0.dtd"
   xmlns:inkscape="http://www.inkscape.org/namespaces/inkscape"
   id="Layer_1"
   style="enable-background:new 0 0 64 64;"
   version="1.1"
   viewBox="0 0 64 64"
   xml:space="preserve"
   inkscape:version="0.91 r13725"
   sodipodi:docname="watering-can.svg"><metadata
     id="metadata21"><rdf:RDF><cc:Work
         rdf:about=""><dc:format>image/svg+xml</dc:format><dc:type
           rdf:resource="http://purl.org/dc/dcmitype/StillImage" /><dc:title></dc:title></cc:Work></rdf:RDF></metadata><defs
     id="defs19" /><sodipodi:namedview
     pagecolor="#ffffff"
     bordercolor="#666666"
     borderopacity="1"
     objecttolerance="10"
     gridtolerance="10"
     guidetolerance="10"
     inkscape:pageopacity="0"
     inkscape:pageshadow="2"
     inkscape:window-width="1366"
     inkscape:window-height="709"
     id="namedview17"
     showgrid="false"
     inkscape:zoom="7.375"
     inkscape:cx="41.39207"
     inkscape:cy="27.242962"
     inkscape:window-x="0"
     inkscape:window-y="0"
     inkscape:window-maximized="1"
     inkscape:current-layer="Layer_1" /><style
     type="text/css"
     id="style3">
	.st0{fill:#ECF0F1;}
	.st1{fill:#BDC3C7;}
	.st2{fill:#282828;}
</style><path
     class="st2"
     d="m 55.37732,25.8 c -1.8,-1.1 -4.1,-0.8 -5.6,-0.4 l 0,-1.1 c 0,-0.6 -0.4,-1 -1,-1 l -6.3,0 0,-8.7 c 0,-0.6 -0.4,-1 -1,-1 l -4.4,0 c -0.6,0 -1,0.4 -1,1 l 0,8.7 -6.3,0 c -0.6,0 -1,0.4 -1,1 l 0,10.1 -12.6,-8.4 c 0.2,-0.6 0.3,-1.3 0.3,-2 -0.1,-1.6 -0.8,-3.1 -1.9,-4.2 -0.4,-0.4 -1,-0.3 -1.4,0.1 l -6.8000001,7.4 c -0.4,0.4 -0.3,1 0.1,1.4 1.0999999,1 2.4999999,1.6 4.1000001,1.6 0.1,0 0.2,0 0.3,0 0.5,0 1,-0.1 1.4,-0.2 l 16.6,14.7 0,4.5 c 0,0.6 0.4,1 1,1 l 19,0 c 0.6,0 1,-0.4 1,-1 l 0,-7.2 c 0.1,0 0.3,-0.1 0.4,-0.2 0.3,-0.2 7.6,-5.4 7.6,-10.4 -0.1,-2.7 -0.9,-4.7 -2.5,-5.7 z m -24.6,9.7 17,0 0,1 -17,0 0,-1 z m 7.4,-19.8 2.4,0 0,13.9 -2.4,0 0,-13.9 z m -2,9.6 0,5.2 c 0,0.6 0.4,1 1,1 l 4.4,0 c 0.6,0 1,-0.4 1,-1 l 0,-5.2 5.3,0 0,8.1 -17,0 0,-8.1 5.3,0 z m -25.5,3.1 C 9.9773198,28.4 9.2773198,28.3 8.5773198,27.9 L 13.77732,22.2 c 0.4,0.6 0.6,1.3 0.6,2 0,1.1 -0.3,2.1 -1.1,2.9 -0.8,0.8 -1.5,1.2 -2.6,1.3 z m 3.4,0.8 c 0.3,-0.2 0.6,-0.5 0.8,-0.7 0.2,-0.2 0.3,-0.3 0.4,-0.5 l 13.5,9 0,5.2 -14.7,-13 z m 16.7,19.1 0,-9.9 17,0 0,9.9 -17,0 z m 19,-8.5 0,-12.3 c 1.2,-0.4 3.2,-0.9 4.5,0 1,0.6 1.5,2 1.5,4.1 0,2.9 -3.8,6.5 -6,8.2 z"
     id="path15"
     inkscape:connector-curvature="0"
     style="fill:#636c72;fill-opacity:1" /></svg>