<?xml version="1.0" encoding="UTF-8" standalone="no"?>
<!-- Created with Inkscape (http://www.inkscape.org/) -->

<svg
   xmlns:dc="http://purl.org/dc/elements/1.1/"
   xmlns:cc="http://creativecommons.org/ns#"
   xmlns:rdf="http://www.w3.org/1999/02/22-rdf-syntax-ns#"
   xmlns:svg="http://www.w3.org/2000/svg"
   xmlns="http://www.w3.org/2000/svg"
   xmlns:xlink="http://www.w3.org/1999/xlink"
   xmlns:sodipodi="http://sodipodi.sourceforge.net/DTD/sodipodi-0.dtd"
   xmlns:inkscape="http://www.inkscape.org/namespaces/inkscape"
   width="112.03883mm"
   height="88.146721mm"
   viewBox="0 0 396.988 312.3309"
   id="svg4948"
   version="1.1"
   inkscape:version="0.91 r13725"
   sodipodi:docname="logo-only-greyscale.svg">
  <sodipodi:namedview
     id="base"
     pagecolor="#ffffff"
     bordercolor="#666666"
     borderopacity="1.0"
     inkscape:pageopacity="0.0"
     inkscape:pageshadow="2"
     inkscape:zoom="0.27451797"
     inkscape:cx="1494.6518"
     inkscape:cy="291.86061"
     inkscape:document-units="px"
     inkscape:current-layer="layer2"
     showgrid="false"
     fit-margin-top="0"
     fit-margin-left="0"
     fit-margin-right="0"
     fit-margin-bottom="0"
     inkscape:window-width="1366"
     inkscape:window-height="705"
     inkscape:window-x="0"
     inkscape:window-y="0"
     inkscape:window-maximized="1" />
  <defs
     id="defs4950">
    <clipPath
       id="SVGID_6_-3">
      <polygon
         id="use7931-6"
         points="89.068,91.405 74.548,91.405 64.662,63.324 85.852,60.377 " />
    </clipPath>
    <clipPath
       id="SVGID_4_-7">
      <path
         inkscape:connector-curvature="0"
         d="m 58.669,48.339 -33.736,0 c -1.725,0 -3.38,-0.681 -4.606,-1.895 l 0,0 c -0.8,-0.793 -0.8,-2.086 0,-2.879 l 0,0 c 1.226,-1.214 2.881,-1.895 4.606,-1.895 l 33.736,0 0,6.669 z"
         id="use7903-5" />
    </clipPath>
    <clipPath
       id="SVGID_2_-3">
      <circle
         cx="64"
         cy="64"
         id="use7881-5"
         r="64" />
    </clipPath>
    <clipPath
       clipPathUnits="userSpaceOnUse"
       id="clipPath9960">
      <circle
         id="circle9962"
         r="291.14285"
         cy="400.93271"
         cx="291.42865"
         style="display:inline;fill:#735ea5" />
    </clipPath>
    <clipPath
       clipPathUnits="userSpaceOnUse"
       id="clipPath9964">
      <circle
         id="circle9966"
         r="291.14285"
         cy="400.93271"
         cx="291.42865"
         style="display:inline;fill:#735ea5" />
    </clipPath>
    <clipPath
       clipPathUnits="userSpaceOnUse"
       id="clipPath9968">
      <circle
         id="circle9970"
         r="291.14285"
         cy="400.93271"
         cx="291.42865"
         style="display:inline;fill:#735ea5" />
    </clipPath>
    <clipPath
       clipPathUnits="userSpaceOnUse"
       id="clipPath9972">
      <circle
         id="circle9974"
         r="291.14285"
         cy="400.93271"
         cx="291.42865"
         style="display:inline;fill:#735ea5" />
    </clipPath>
    <clipPath
       clipPathUnits="userSpaceOnUse"
       id="clipPath9976">
      <circle
         id="circle9978"
         r="291.14285"
         cy="400.93271"
         cx="291.42865"
         style="display:inline;fill:#735ea5" />
    </clipPath>
    <clipPath
       clipPathUnits="userSpaceOnUse"
       id="clipPath530">
      <path
         d="m 199.539,252.685 5.873,0 c 3.891,17.232 16.906,30.997 33.708,35.954 l 0,0 c -19.66,-2.234 -35.542,-16.902 -39.581,-35.954"
         id="path532"
         inkscape:connector-curvature="0" />
    </clipPath>
    <linearGradient
       x1="0"
       y1="0"
       x2="1"
       y2="0"
       gradientUnits="userSpaceOnUse"
       gradientTransform="matrix(18.172531,29.595047,29.595047,-18.172531,201.43066,244.02539)"
       spreadMethod="pad"
       id="linearGradient538">
      <stop
         style="stop-opacity:1;stop-color:#2bc4f3"
         offset="0"
         id="stop540" />
      <stop
         style="stop-opacity:1;stop-color:#00aeee"
         offset="0.5"
         id="stop542" />
      <stop
         style="stop-opacity:1;stop-color:#0095da"
         offset="1"
         id="stop544" />
    </linearGradient>
    <clipPath
       clipPathUnits="userSpaceOnUse"
       id="clipPath508">
      <path
         d="m 240.209,311.527 c -25.297,0 -45.805,-20.507 -45.805,-45.802 l 0,0 0,-13.04 1,0 c 4.391,20.714 22.781,36.261 44.805,36.261 l 0,0 4.134,0 c -22.025,0 -40.413,-15.547 -44.804,-36.261 l 0,0 15.541,0 c 25.296,0 45.803,20.505 45.803,45.803 l 0,0 0,13.039 -20.674,0 z"
         id="path510"
         inkscape:connector-curvature="0" />
    </clipPath>
    <linearGradient
       x1="0"
       y1="0"
       x2="1"
       y2="0"
       gradientUnits="userSpaceOnUse"
       gradientTransform="matrix(66.478516,0,0,-66.478516,194.4043,282.10547)"
       spreadMethod="pad"
       id="linearGradient516">
      <stop
         style="stop-opacity:1;stop-color:#2bc4f3"
         offset="0"
         id="stop518" />
      <stop
         style="stop-opacity:1;stop-color:#00aeee"
         offset="0.5"
         id="stop520" />
      <stop
         style="stop-opacity:1;stop-color:#0095da"
         offset="1"
         id="stop522" />
    </linearGradient>
    <clipPath
       clipPathUnits="userSpaceOnUse"
       id="clipPath486">
      <path
         d="m 194.404,248.658 0,-4.831 c 0,-9.369 7.597,-16.966 16.965,-16.966 l 0,0 7.658,0 0,4.83 c 0,9.373 -7.596,16.967 -16.965,16.967 l 0,0 -7.658,0 z"
         id="path488"
         inkscape:connector-curvature="0" />
    </clipPath>
    <linearGradient
       x1="0"
       y1="0"
       x2="1"
       y2="0"
       gradientUnits="userSpaceOnUse"
       gradientTransform="matrix(-88.729996,-140.4894,-140.4894,88.730011,230.89795,276.0498)"
       spreadMethod="pad"
       id="linearGradient494">
      <stop
         style="stop-opacity:1;stop-color:#2bc4f3"
         offset="0"
         id="stop496" />
      <stop
         style="stop-opacity:1;stop-color:#00aeee"
         offset="0.5"
         id="stop498" />
      <stop
         style="stop-opacity:1;stop-color:#0095da"
         offset="1"
         id="stop500" />
    </linearGradient>
    <clipPath
       clipPathUnits="userSpaceOnUse"
       id="clipPath464">
      <path
         d="m 178.924,248.658 c -13.521,0 -24.485,-10.962 -24.485,-24.485 l 0,0 0,-6.972 11.052,0 c 13.523,0 24.487,10.963 24.487,24.484 l 0,0 0,6.973 -11.054,0 z"
         id="path466"
         inkscape:connector-curvature="0" />
    </clipPath>
    <linearGradient
       x1="0"
       y1="0"
       x2="1"
       y2="0"
       gradientUnits="userSpaceOnUse"
       gradientTransform="matrix(-88.728668,-140.48727,-140.48727,88.728668,208.41113,290.25)"
       spreadMethod="pad"
       id="linearGradient472">
      <stop
         style="stop-opacity:1;stop-color:#2bc4f3"
         offset="0"
         id="stop474" />
      <stop
         style="stop-opacity:1;stop-color:#00aeee"
         offset="0.5"
         id="stop476" />
      <stop
         style="stop-opacity:1;stop-color:#0095da"
         offset="1"
         id="stop478" />
    </linearGradient>
    <clipPath
       clipPathUnits="userSpaceOnUse"
       id="clipPath442">
      <path
         d="m 140.99,296.045 0,-9.61 c 0,-18.64 15.112,-33.75 33.751,-33.75 l 0,0 15.237,0 0,9.607 c 0,18.641 -15.112,33.753 -33.752,33.753 l 0,0 -15.236,0 z"
         id="path444"
         inkscape:connector-curvature="0" />
    </clipPath>
    <linearGradient
       x1="0"
       y1="0"
       x2="1"
       y2="0"
       gradientUnits="userSpaceOnUse"
       gradientTransform="matrix(-88.727844,-140.48598,-140.48598,88.72786,184.89648,305.10156)"
       spreadMethod="pad"
       id="linearGradient450">
      <stop
         style="stop-opacity:1;stop-color:#2bc4f3"
         offset="0"
         id="stop452" />
      <stop
         style="stop-opacity:1;stop-color:#00aeee"
         offset="0.5"
         id="stop454" />
      <stop
         style="stop-opacity:1;stop-color:#0095da"
         offset="1"
         id="stop456" />
    </linearGradient>
    <clipPath
       clipPathUnits="userSpaceOnUse"
       id="clipPath442-3">
      <path
         d="m 140.99,296.045 0,-9.61 c 0,-18.64 15.112,-33.75 33.751,-33.75 l 0,0 15.237,0 0,9.607 c 0,18.641 -15.112,33.753 -33.752,33.753 l 0,0 -15.236,0 z"
         id="path444-6"
         inkscape:connector-curvature="0" />
    </clipPath>
    <clipPath
       clipPathUnits="userSpaceOnUse"
       id="clipPath464-7">
      <path
         d="m 178.924,248.658 c -13.521,0 -24.485,-10.962 -24.485,-24.485 l 0,0 0,-6.972 11.052,0 c 13.523,0 24.487,10.963 24.487,24.484 l 0,0 0,6.973 -11.054,0 z"
         id="path466-5"
         inkscape:connector-curvature="0" />
    </clipPath>
    <clipPath
       clipPathUnits="userSpaceOnUse"
       id="clipPath486-3">
      <path
         d="m 194.404,248.658 0,-4.831 c 0,-9.369 7.597,-16.966 16.965,-16.966 l 0,0 7.658,0 0,4.83 c 0,9.373 -7.596,16.967 -16.965,16.967 l 0,0 -7.658,0 z"
         id="path488-5"
         inkscape:connector-curvature="0" />
    </clipPath>
    <linearGradient
       x1="0"
       y1="0"
       x2="1"
       y2="0"
       gradientUnits="userSpaceOnUse"
       gradientTransform="matrix(18.172531,29.595047,29.595047,-18.172531,201.43066,244.02539)"
       spreadMethod="pad"
       id="linearGradient4324">
      <stop
         style="stop-opacity:0.98039216;stop-color:#06ef63"
         offset="0"
         id="stop4326" />
      <stop
         style="stop-opacity:0.98039216;stop-color:#06ef63"
         offset="0.5"
         id="stop4328" />
      <stop
         style="stop-opacity:0.98039216;stop-color:#0bac4c"
         offset="1"
         id="stop4330" />
    </linearGradient>
    <clipPath
       clipPathUnits="userSpaceOnUse"
       id="clipPath508-6">
      <path
         d="m 240.209,311.527 c -25.297,0 -45.805,-20.507 -45.805,-45.802 l 0,0 0,-13.04 1,0 c 4.391,20.714 22.781,36.261 44.805,36.261 l 0,0 4.134,0 c -22.025,0 -40.413,-15.547 -44.804,-36.261 l 0,0 15.541,0 c 25.296,0 45.803,20.505 45.803,45.803 l 0,0 0,13.039 -20.674,0 z"
         id="path510-2"
         inkscape:connector-curvature="0" />
    </clipPath>
    <clipPath
       clipPathUnits="userSpaceOnUse"
       id="clipPath530-9">
      <path
         d="m 199.539,252.685 5.873,0 c 3.891,17.232 16.906,30.997 33.708,35.954 l 0,0 c -19.66,-2.234 -35.542,-16.902 -39.581,-35.954"
         id="path532-1"
         inkscape:connector-curvature="0" />
    </clipPath>
    <linearGradient
       x1="0"
       y1="0"
       x2="1"
       y2="0"
       gradientUnits="userSpaceOnUse"
       gradientTransform="matrix(18.172531,29.595047,29.595047,-18.172531,201.43066,244.02539)"
       spreadMethod="pad"
       id="linearGradient538-2"
       xlink:href="#linearGradient4300">
      <stop
         style="stop-opacity:0.98039216;stop-color:#06ef63"
         offset="0"
         id="stop540-7" />
      <stop
         style="stop-opacity:0.98039216;stop-color:#06ef63"
         offset="0.5"
         id="stop542-0" />
      <stop
         style="stop-opacity:0.96078432;stop-color:#0eb14e"
         offset="1"
         id="stop544-9" />
    </linearGradient>
    <linearGradient
       id="linearGradient4300"
       spreadMethod="pad"
       gradientTransform="matrix(18.172531,29.595047,29.595047,-18.172531,201.43066,244.02539)"
       gradientUnits="userSpaceOnUse"
       y2="0"
       x2="1"
       y1="0"
       x1="0">
      <stop
         id="stop4302"
         offset="0"
         style="stop-opacity:0.98039216;stop-color:#06ef63" />
      <stop
         id="stop4304"
         offset="0.5"
         style="stop-opacity:0.98039216;stop-color:#06ef63" />
      <stop
         id="stop4306"
         offset="1"
         style="stop-opacity:0.98039216;stop-color:#0daf4e" />
    </linearGradient>
  </defs>
  <metadata
     id="metadata4953">
    <rdf:RDF>
      <cc:Work
         rdf:about="">
        <dc:format>image/svg+xml</dc:format>
        <dc:type
           rdf:resource="http://purl.org/dc/dcmitype/StillImage" />
        <dc:title></dc:title>
      </cc:Work>
    </rdf:RDF>
  </metadata>
  <g
     transform="translate(-677.67139,-238.83044)"
     id="layer1"
     inkscape:groupmode="layer"
     inkscape:label="icon base"
     style="display:inline">
    <g
       style="fill:#559532;fill-opacity:1"
       transform="matrix(19.630952,0,0,19.630952,-86.48809,-19.840173)"
       id="g5867" />
    <rect
       style="opacity:0;fill:#f4f5f5"
       height="1520"
       width="727.93799"
       x="-1221.1118"
       y="-447.63873"
       id="rect7868" />
  </g>
  <g
     inkscape:groupmode="layer"
     id="layer2"
     inkscape:label="icon image"
     style="display:inline;opacity:0.98000004"
     transform="translate(-851.95702,-212.182)">
    <g
       id="Layer_1"
       transform="translate(-801.12786,530.99855)">
      <rect
         style="opacity:0;fill:#f4f5f5"
         height="1520"
         width="727.93799"
         x="-219.98399"
         y="-731"
         id="rect9989" />
    </g>
    <g
       id="g3551"
       transform="matrix(0.73445346,0,0,0.73445346,708.40556,93.453105)">
      <g
         transform="matrix(4.5083671,0,0,-4.5083671,-440.18123,1566.1342)"
         id="g440"
         clip-path="url(#clipPath442)"
         style="fill:none;stroke:#e4e4ff;stroke-width:6.65429401;stroke-linecap:round;stroke-linejoin:round;stroke-miterlimit:4;stroke-dasharray:none;stroke-opacity:1">
        <g
           id="g446"
           style="fill:none;stroke:#e4e4ff;stroke-width:6.65429401;stroke-linecap:round;stroke-linejoin:round;stroke-miterlimit:4;stroke-dasharray:none;stroke-opacity:1">
          <g
             id="g448"
             style="fill:none;stroke:#e4e4ff;stroke-width:6.65429401;stroke-linecap:round;stroke-linejoin:round;stroke-miterlimit:4;stroke-dasharray:none;stroke-opacity:1">
            <path
               d="m 140.99,296.045 0,-9.61 c 0,-18.64 15.112,-33.75 33.751,-33.75 l 0,0 15.237,0 0,9.607 c 0,18.641 -15.112,33.753 -33.752,33.753 l 0,0 -15.236,0 z"
               style="fill:none;stroke:#e4e4ff;stroke-width:6.65429401;stroke-linecap:round;stroke-linejoin:round;stroke-miterlimit:4;stroke-dasharray:none;stroke-opacity:1"
               id="path458"
               inkscape:connector-curvature="0" />
          </g>
        </g>
      </g>
      <g
         transform="matrix(4.5083671,0,0,-4.5083671,-440.18123,1566.1342)"
         id="g462"
         clip-path="url(#clipPath464)"
         style="fill:none;stroke:#e4e4ff;stroke-width:6.65429401;stroke-linecap:round;stroke-linejoin:round;stroke-miterlimit:4;stroke-dasharray:none;stroke-opacity:1">
        <g
           id="g468"
           style="fill:none;stroke:#e4e4ff;stroke-width:6.65429401;stroke-linecap:round;stroke-linejoin:round;stroke-miterlimit:4;stroke-dasharray:none;stroke-opacity:1">
          <g
             id="g470"
             style="fill:none;stroke:#e4e4ff;stroke-width:6.65429401;stroke-linecap:round;stroke-linejoin:round;stroke-miterlimit:4;stroke-dasharray:none;stroke-opacity:1">
            <path
               d="m 178.924,248.658 c -13.521,0 -24.485,-10.962 -24.485,-24.485 l 0,0 0,-6.972 11.052,0 c 13.523,0 24.487,10.963 24.487,24.484 l 0,0 0,6.973 -11.054,0 z"
               style="fill:none;stroke:#e4e4ff;stroke-width:6.65429401;stroke-linecap:round;stroke-linejoin:round;stroke-miterlimit:4;stroke-dasharray:none;stroke-opacity:1"
               id="path480"
               inkscape:connector-curvature="0" />
          </g>
        </g>
      </g>
      <g
         transform="matrix(4.5083671,0,0,-4.5083671,-440.18123,1566.1342)"
         id="g484"
         clip-path="url(#clipPath486)"
         style="fill:none;stroke:#e4e4ff;stroke-width:6.65429401;stroke-linecap:round;stroke-linejoin:round;stroke-miterlimit:4;stroke-dasharray:none;stroke-opacity:1">
        <g
           id="g490"
           style="fill:none;stroke:#e4e4ff;stroke-width:6.65429401;stroke-linecap:round;stroke-linejoin:round;stroke-miterlimit:4;stroke-dasharray:none;stroke-opacity:1">
          <g
             id="g492"
             style="fill:none;stroke:#e4e4ff;stroke-width:6.65429401;stroke-linecap:round;stroke-linejoin:round;stroke-miterlimit:4;stroke-dasharray:none;stroke-opacity:1">
            <path
               d="m 194.404,248.658 0,-4.831 c 0,-9.369 7.597,-16.966 16.965,-16.966 l 0,0 7.658,0 0,4.83 c 0,9.373 -7.596,16.967 -16.965,16.967 l 0,0 -7.658,0 z"
               style="fill:none;stroke:#e4e4ff;stroke-width:6.65429401;stroke-linecap:round;stroke-linejoin:round;stroke-miterlimit:4;stroke-dasharray:none;stroke-opacity:1"
               id="path502"
               inkscape:connector-curvature="0" />
          </g>
        </g>
      </g>
      <g
         transform="matrix(4.5083671,0,0,-4.5083671,-440.18123,1566.1342)"
         id="g506"
         clip-path="url(#clipPath508)"
         style="fill:none;stroke:#e4e4ff;stroke-width:6.65429401;stroke-linecap:round;stroke-linejoin:round;stroke-miterlimit:4;stroke-dasharray:none;stroke-opacity:1">
        <g
           id="g512"
           style="fill:none;stroke:#e4e4ff;stroke-width:6.65429401;stroke-linecap:round;stroke-linejoin:round;stroke-miterlimit:4;stroke-dasharray:none;stroke-opacity:1">
          <g
             id="g514"
             style="fill:none;stroke:#e4e4ff;stroke-width:6.65429401;stroke-linecap:round;stroke-linejoin:round;stroke-miterlimit:4;stroke-dasharray:none;stroke-opacity:1">
            <path
               d="m 240.209,311.527 c -25.297,0 -45.805,-20.507 -45.805,-45.802 l 0,0 0,-13.04 1,0 c 4.391,20.714 22.781,36.261 44.805,36.261 l 0,0 4.134,0 c -22.025,0 -40.413,-15.547 -44.804,-36.261 l 0,0 15.541,0 c 25.296,0 45.803,20.505 45.803,45.803 l 0,0 0,13.039 -20.674,0 z"
               style="fill:none;stroke:#e4e4ff;stroke-width:6.65429401;stroke-linecap:round;stroke-linejoin:round;stroke-miterlimit:4;stroke-dasharray:none;stroke-opacity:1"
               id="path524"
               inkscape:connector-curvature="0" />
          </g>
        </g>
      </g>
    </g>
    <g
       style="font-style:normal;font-variant:normal;font-weight:normal;font-stretch:normal;font-size:377.0539856px;line-height:100%;font-family:'Source Sans Pro';-inkscape-font-specification:'Source Sans Pro';letter-spacing:0px;word-spacing:0px;display:inline;opacity:0.98000004;fill:#e4e4ff;fill-opacity:0.98039216;stroke:none;stroke-width:1px;stroke-linecap:butt;stroke-linejoin:miter;stroke-opacity:1"
       id="text4162"
       transform="matrix(0.9575648,0,0,0.9575648,106.10092,18.886117)">
      <path
         d="m 1391.263,493.71193 q -23.3773,0 -48.2629,-8.29518 -24.5085,-8.67225 -44.4924,-26.77084 l 36.9513,-44.49237 q 13.1969,10.55751 28.2791,17.34449 15.4592,6.40991 29.0331,6.40991 14.7051,0 21.1151,-4.52464 6.7869,-4.52465 6.7869,-12.81984 0,-4.52465 -2.2623,-7.54108 -2.2623,-3.01643 -6.787,-5.65581 -4.1476,-2.63938 -10.1804,-4.9017 -6.0329,-2.63938 -13.951,-5.65581 l -30.5414,-12.81984 q -9.8034,-3.77054 -18.8527,-9.8034 -9.0493,-6.40992 -15.8363,-14.7051 -6.7869,-8.67225 -10.9345,-19.60681 -3.7706,-10.93457 -3.7706,-24.13146 0,-15.83626 6.787,-29.41021 6.787,-13.951 18.8527,-24.13145 12.0657,-10.55751 28.6561,-16.59038 16.9674,-6.03286 36.9513,-6.03286 21.115,0 42.6071,7.91813 21.8691,7.91814 38.8366,24.88556 l -32.4267,40.72184 q -12.4428,-8.67225 -24.1314,-13.19689 -11.3117,-4.52465 -24.8856,-4.52465 -12.0657,0 -18.8527,4.14759 -6.787,4.1476 -6.787,12.44278 0,8.67224 9.4264,13.57395 9.8034,4.52464 26.7708,10.93456 l 29.7873,11.68868 q 23.0003,9.04929 35.4431,25.26261 12.4427,16.21332 12.4427,41.853 0,15.45921 -6.4099,29.78726 -6.4099,14.32805 -18.8527,25.26262 -12.0657,10.55751 -29.7872,16.96743 -17.7216,6.40991 -40.7219,6.40991 z"
         style="font-style:normal;font-variant:normal;font-weight:900;font-stretch:normal;font-family:'Source Sans Pro';-inkscape-font-specification:'Source Sans Pro Heavy';fill:#e4e4ff;fill-opacity:0.98039216"
         id="path3570"
         inkscape:connector-curvature="0" />
      <path
         d="m 1630.875,493.71193 q -25.6397,0 -46.7547,-8.67224 -20.7379,-8.67224 -35.8201,-24.88556 -14.7051,-16.59038 -23.0003,-40.34478 -8.2952,-24.13145 -8.2952,-54.29577 0,-30.16432 8.2952,-53.54167 8.2952,-23.7544 23.0003,-39.59067 15.0822,-16.21332 35.8201,-24.5085 21.115,-8.29519 46.7547,-8.29519 25.2626,0 46.3777,8.29519 21.115,8.29518 35.8201,24.5085 15.0821,16.21333 23.3773,39.59067 8.2952,23.37735 8.2952,53.54167 0,30.16432 -8.2952,54.29577 -8.2952,23.7544 -23.3773,40.34478 -14.7051,16.21332 -35.8201,24.88556 -21.1151,8.67224 -46.3777,8.67224 z m 0,-55.80399 q 22.2462,0 34.689,-19.22975 12.8198,-19.60681 12.8198,-53.16461 0,-33.55781 -12.8198,-51.6564 -12.4428,-18.47564 -34.689,-18.47564 -22.2462,0 -35.066,18.47564 -12.4428,18.09859 -12.4428,51.6564 0,33.5578 12.4428,53.16461 12.8198,19.22975 35.066,19.22975 z"
         style="font-style:normal;font-variant:normal;font-weight:900;font-stretch:normal;font-family:'Source Sans Pro';-inkscape-font-specification:'Source Sans Pro Heavy';fill:#e4e4ff;fill-opacity:0.98039216"
         id="path3572"
         inkscape:connector-curvature="0" />
      <path
         d="m 1825.0225,489.18729 0,-84.4601 -73.9025,-160.62499 69.3779,0 18.0986,51.27934 q 4.5246,13.951 9.0493,27.14788 4.5246,13.19689 9.4263,27.52495 l 1.5082,0 q 4.9018,-14.32806 9.4264,-27.52495 4.9017,-13.19688 9.8034,-27.14788 l 18.0986,-51.27934 67.8697,0 -73.9026,160.62499 0,84.4601 -64.8533,0 z"
         style="font-style:normal;font-variant:normal;font-weight:900;font-stretch:normal;font-family:'Source Sans Pro';-inkscape-font-specification:'Source Sans Pro Heavy';fill:#e4e4ff;fill-opacity:0.98039216"
         id="path3574"
         inkscape:connector-curvature="0" />
      <path
         d="m 2028.6141,489.18729 -56.5581,-248.47858 18.0986,0 31.2955,146.29695 q 4.1476,20.36091 8.2951,40.72183 4.5247,19.98386 8.6723,40.34477 l 1.5082,0 q 4.5247,-20.36091 9.0493,-40.34477 4.9017,-20.36092 10.1805,-40.72183 l 38.8365,-146.29695 17.7216,0 38.8365,146.29695 q 5.2788,20.36091 9.8034,40.72183 4.9017,19.98386 10.1805,40.34477 l 1.5082,0 q 4.1476,-20.36091 7.9181,-40.34477 4.1476,-20.36092 8.2952,-40.72183 l 31.2955,-146.29695 16.9674,0 -55.4269,248.47858 -19.2298,0 -45.2464,-170.42841 q -3.3935,-14.7051 -6.787,-27.90199 -3.3935,-13.57394 -6.4099,-28.27905 l -1.5082,0 q -3.0165,14.70511 -6.787,28.27905 -3.7706,13.19689 -7.164,27.90199 l -44.4924,170.42841 -18.8527,0 z"
         style="font-style:normal;font-variant:normal;font-weight:300;font-stretch:normal;font-family:'Source Sans Pro';-inkscape-font-specification:'Source Sans Pro Light';fill:#e4e4ff;fill-opacity:0.98039216"
         id="path3576"
         inkscape:connector-curvature="0" />
      <path
         d="m 2372.0337,493.71193 q -22.2462,0 -41.0988,-9.04929 -18.8527,-9.42635 -32.4267,-26.39378 -13.5739,-16.96743 -21.115,-40.72183 -7.5411,-24.13146 -7.5411,-53.54167 0,-29.41021 7.5411,-52.78755 7.5411,-23.75441 21.115,-40.34478 13.574,-16.96743 32.4267,-25.63967 18.8526,-9.0493 41.0988,-9.0493 22.6233,0 41.476,9.0493 18.8527,8.67224 32.4266,25.63967 13.574,16.59037 21.115,40.34478 7.5411,23.37734 7.5411,52.78755 0,29.41021 -7.5411,53.54167 -7.541,23.7544 -21.115,40.72183 -13.5739,16.96743 -32.4266,26.39378 -18.8527,9.04929 -41.476,9.04929 z m 0,-15.83626 q 18.8527,0 34.3119,-7.91814 15.4593,-8.29518 26.3938,-23.00029 11.3116,-15.08216 17.3445,-35.82013 6.0329,-21.11502 6.0329,-47.13175 0,-25.63967 -6.0329,-46.37764 -6.0329,-20.73797 -17.3445,-35.06602 -10.9345,-14.7051 -26.3938,-22.62324 -15.4592,-7.91813 -34.3119,-7.91813 -18.8527,0 -34.6889,7.91813 -15.4592,7.91814 -26.3938,22.62324 -10.9346,14.32805 -16.9674,35.06602 -6.0329,20.73797 -6.0329,46.37764 0,26.01673 6.0329,47.13175 6.0328,20.73797 16.9674,35.82013 10.9346,14.70511 26.3938,23.00029 15.8362,7.91814 34.6889,7.91814 z"
         style="font-style:normal;font-variant:normal;font-weight:300;font-stretch:normal;font-family:'Source Sans Pro';-inkscape-font-specification:'Source Sans Pro Light';fill:#e4e4ff;fill-opacity:0.98039216"
         id="path3578"
         inkscape:connector-curvature="0" />
      <path
         d="m 2532.8002,489.18729 0,-248.47858 71.2632,0 q 18.4756,0 33.5578,3.77054 15.0822,3.39349 25.6397,11.31162 10.5575,7.91813 16.2133,20.36091 6.0329,12.44279 6.0329,30.16432 0,29.78727 -17.3445,46.7547 -16.9675,16.96743 -46.3777,20.73797 l 68.6239,115.37852 -19.9839,0 -67.4927,-114.24736 -52.7875,0 0,114.24736 -17.3445,0 z m 17.3445,-128.57541 49.394,0 q 33.1808,0 50.5253,-13.19689 17.7215,-13.57395 17.7215,-41.09889 0,-27.90199 -17.7215,-39.21361 -17.7216,-11.68867 -50.5253,-11.68867 l -49.394,0 0,105.19806 z"
         style="font-style:normal;font-variant:normal;font-weight:300;font-stretch:normal;font-family:'Source Sans Pro';-inkscape-font-specification:'Source Sans Pro Light';fill:#e4e4ff;fill-opacity:0.98039216"
         id="path3580"
         inkscape:connector-curvature="0" />
      <path
         d="m 2739.4082,489.18729 0,-248.47858 17.3445,0 0,233.39642 114.6244,0 0,15.08216 -131.9689,0 z"
         style="font-style:normal;font-variant:normal;font-weight:300;font-stretch:normal;font-family:'Source Sans Pro';-inkscape-font-specification:'Source Sans Pro Light';fill:#e4e4ff;fill-opacity:0.98039216"
         id="path3582"
         inkscape:connector-curvature="0" />
      <path
         d="m 2916.5589,489.18729 0,-248.47858 57.6892,0 q 28.6561,0 49.7711,8.67224 21.4921,8.67224 35.4431,24.88556 13.951,16.21333 20.738,38.83657 6.787,22.62323 6.787,50.90228 0,28.27905 -6.787,51.6564 -6.787,23.00029 -20.738,39.59067 -13.951,16.21332 -35.066,25.26261 -21.115,8.67225 -49.7711,8.67225 l -58.0663,0 z m 17.3444,-14.70511 38.4595,0 q 25.2627,0 43.3613,-7.91813 18.4756,-8.29519 30.1643,-23.0003 11.6886,-14.7051 17.3445,-34.68896 5.6558,-20.36092 5.6558,-44.86943 0,-24.13145 -5.6558,-44.11531 -5.6559,-19.98386 -17.3445,-34.31192 -11.6887,-14.32805 -30.1643,-22.24618 -18.0986,-7.91813 -43.3613,-7.91813 l -38.4595,0 0,219.06836 z"
         style="font-style:normal;font-variant:normal;font-weight:300;font-stretch:normal;font-family:'Source Sans Pro';-inkscape-font-specification:'Source Sans Pro Light';fill:#e4e4ff;fill-opacity:0.98039216"
         id="path3584"
         inkscape:connector-curvature="0" />
    </g>
  </g>
  <style
     type="text/css"
     id="style4988">
	.st0{fill:#3374BA;}
	.st1{opacity:0.2;fill:#2D3079;}
	.st2{opacity:0.2;fill:#FFFFFF;}
	.st3{opacity:0.1;fill:#FFFFFF;}
	.st4{fill:#FFFFFF;}
	.st5{opacity:0.2;}
	.st6{fill:#202020;}
</style>
</svg>
