<?xml version="1.0" encoding="UTF-8" standalone="no"?>
<!-- Created with Inkscape (http://www.inkscape.org/) -->

<svg
   xmlns:dc="http://purl.org/dc/elements/1.1/"
   xmlns:cc="http://creativecommons.org/ns#"
   xmlns:rdf="http://www.w3.org/1999/02/22-rdf-syntax-ns#"
   xmlns:svg="http://www.w3.org/2000/svg"
   xmlns="http://www.w3.org/2000/svg"
   xmlns:sodipodi="http://sodipodi.sourceforge.net/DTD/sodipodi-0.dtd"
   xmlns:inkscape="http://www.inkscape.org/namespaces/inkscape"
   width="152.54723mm"
   height="120.01676mm"
   viewBox="0 0 540.52167 425.25624"
   id="svg4948"
   version="1.1"
   inkscape:version="0.91 r13725"
   sodipodi:docname="logo-only.svg">
  <sodipodi:namedview
     id="base"
     pagecolor="#ffffff"
     bordercolor="#666666"
     borderopacity="1.0"
     inkscape:pageopacity="0.0"
     inkscape:pageshadow="2"
     inkscape:zoom="0.75008393"
     inkscape:cx="113.60072"
     inkscape:cy="112.30524"
     inkscape:document-units="px"
     inkscape:current-layer="layer2"
     showgrid="false"
     fit-margin-top="0"
     fit-margin-left="0"
     fit-margin-right="0"
     fit-margin-bottom="0"
     inkscape:window-width="1366"
     inkscape:window-height="705"
     inkscape:window-x="0"
     inkscape:window-y="0"
     inkscape:window-maximized="1" />
  <defs
     id="defs4950">
    <clipPath
       id="SVGID_6_-3">
      <polygon
         id="use7931-6"
         points="89.068,91.405 74.548,91.405 64.662,63.324 85.852,60.377 " />
    </clipPath>
    <clipPath
       id="SVGID_4_-7">
      <path
         inkscape:connector-curvature="0"
         d="m 58.669,48.339 -33.736,0 c -1.725,0 -3.38,-0.681 -4.606,-1.895 l 0,0 c -0.8,-0.793 -0.8,-2.086 0,-2.879 l 0,0 c 1.226,-1.214 2.881,-1.895 4.606,-1.895 l 33.736,0 0,6.669 z"
         id="use7903-5" />
    </clipPath>
    <clipPath
       id="SVGID_2_-3">
      <circle
         cx="64"
         cy="64"
         id="use7881-5"
         r="64" />
    </clipPath>
    <clipPath
       clipPathUnits="userSpaceOnUse"
       id="clipPath9960">
      <circle
         id="circle9962"
         r="291.14285"
         cy="400.93271"
         cx="291.42865"
         style="display:inline;fill:#735ea5" />
    </clipPath>
    <clipPath
       clipPathUnits="userSpaceOnUse"
       id="clipPath9964">
      <circle
         id="circle9966"
         r="291.14285"
         cy="400.93271"
         cx="291.42865"
         style="display:inline;fill:#735ea5" />
    </clipPath>
    <clipPath
       clipPathUnits="userSpaceOnUse"
       id="clipPath9968">
      <circle
         id="circle9970"
         r="291.14285"
         cy="400.93271"
         cx="291.42865"
         style="display:inline;fill:#735ea5" />
    </clipPath>
    <clipPath
       clipPathUnits="userSpaceOnUse"
       id="clipPath9972">
      <circle
         id="circle9974"
         r="291.14285"
         cy="400.93271"
         cx="291.42865"
         style="display:inline;fill:#735ea5" />
    </clipPath>
    <clipPath
       clipPathUnits="userSpaceOnUse"
       id="clipPath9976">
      <circle
         id="circle9978"
         r="291.14285"
         cy="400.93271"
         cx="291.42865"
         style="display:inline;fill:#735ea5" />
    </clipPath>
    <clipPath
       clipPathUnits="userSpaceOnUse"
       id="clipPath530">
      <path
         d="m 199.539,252.685 5.873,0 c 3.891,17.232 16.906,30.997 33.708,35.954 l 0,0 c -19.66,-2.234 -35.542,-16.902 -39.581,-35.954"
         id="path532"
         inkscape:connector-curvature="0" />
    </clipPath>
    <linearGradient
       x1="0"
       y1="0"
       x2="1"
       y2="0"
       gradientUnits="userSpaceOnUse"
       gradientTransform="matrix(18.172531,29.595047,29.595047,-18.172531,201.43066,244.02539)"
       spreadMethod="pad"
       id="linearGradient538">
      <stop
         style="stop-opacity:1;stop-color:#2bc4f3"
         offset="0"
         id="stop540" />
      <stop
         style="stop-opacity:1;stop-color:#00aeee"
         offset="0.5"
         id="stop542" />
      <stop
         style="stop-opacity:1;stop-color:#0095da"
         offset="1"
         id="stop544" />
    </linearGradient>
    <clipPath
       clipPathUnits="userSpaceOnUse"
       id="clipPath508">
      <path
         d="m 240.209,311.527 c -25.297,0 -45.805,-20.507 -45.805,-45.802 l 0,0 0,-13.04 1,0 c 4.391,20.714 22.781,36.261 44.805,36.261 l 0,0 4.134,0 c -22.025,0 -40.413,-15.547 -44.804,-36.261 l 0,0 15.541,0 c 25.296,0 45.803,20.505 45.803,45.803 l 0,0 0,13.039 -20.674,0 z"
         id="path510"
         inkscape:connector-curvature="0" />
    </clipPath>
    <linearGradient
       x1="0"
       y1="0"
       x2="1"
       y2="0"
       gradientUnits="userSpaceOnUse"
       gradientTransform="matrix(66.478516,0,0,-66.478516,194.4043,282.10547)"
       spreadMethod="pad"
       id="linearGradient516">
      <stop
         style="stop-opacity:1;stop-color:#2bc4f3"
         offset="0"
         id="stop518" />
      <stop
         style="stop-opacity:1;stop-color:#00aeee"
         offset="0.5"
         id="stop520" />
      <stop
         style="stop-opacity:1;stop-color:#0095da"
         offset="1"
         id="stop522" />
    </linearGradient>
    <clipPath
       clipPathUnits="userSpaceOnUse"
       id="clipPath486">
      <path
         d="m 194.404,248.658 0,-4.831 c 0,-9.369 7.597,-16.966 16.965,-16.966 l 0,0 7.658,0 0,4.83 c 0,9.373 -7.596,16.967 -16.965,16.967 l 0,0 -7.658,0 z"
         id="path488"
         inkscape:connector-curvature="0" />
    </clipPath>
    <linearGradient
       x1="0"
       y1="0"
       x2="1"
       y2="0"
       gradientUnits="userSpaceOnUse"
       gradientTransform="matrix(-88.729996,-140.4894,-140.4894,88.730011,230.89795,276.0498)"
       spreadMethod="pad"
       id="linearGradient494">
      <stop
         style="stop-opacity:1;stop-color:#2bc4f3"
         offset="0"
         id="stop496" />
      <stop
         style="stop-opacity:1;stop-color:#00aeee"
         offset="0.5"
         id="stop498" />
      <stop
         style="stop-opacity:1;stop-color:#0095da"
         offset="1"
         id="stop500" />
    </linearGradient>
    <clipPath
       clipPathUnits="userSpaceOnUse"
       id="clipPath464">
      <path
         d="m 178.924,248.658 c -13.521,0 -24.485,-10.962 -24.485,-24.485 l 0,0 0,-6.972 11.052,0 c 13.523,0 24.487,10.963 24.487,24.484 l 0,0 0,6.973 -11.054,0 z"
         id="path466"
         inkscape:connector-curvature="0" />
    </clipPath>
    <linearGradient
       x1="0"
       y1="0"
       x2="1"
       y2="0"
       gradientUnits="userSpaceOnUse"
       gradientTransform="matrix(-88.728668,-140.48727,-140.48727,88.728668,208.41113,290.25)"
       spreadMethod="pad"
       id="linearGradient472">
      <stop
         style="stop-opacity:1;stop-color:#2bc4f3"
         offset="0"
         id="stop474" />
      <stop
         style="stop-opacity:1;stop-color:#00aeee"
         offset="0.5"
         id="stop476" />
      <stop
         style="stop-opacity:1;stop-color:#0095da"
         offset="1"
         id="stop478" />
    </linearGradient>
    <clipPath
       clipPathUnits="userSpaceOnUse"
       id="clipPath442">
      <path
         d="m 140.99,296.045 0,-9.61 c 0,-18.64 15.112,-33.75 33.751,-33.75 l 0,0 15.237,0 0,9.607 c 0,18.641 -15.112,33.753 -33.752,33.753 l 0,0 -15.236,0 z"
         id="path444"
         inkscape:connector-curvature="0" />
    </clipPath>
    <linearGradient
       x1="0"
       y1="0"
       x2="1"
       y2="0"
       gradientUnits="userSpaceOnUse"
       gradientTransform="matrix(-88.727844,-140.48598,-140.48598,88.72786,184.89648,305.10156)"
       spreadMethod="pad"
       id="linearGradient450">
      <stop
         style="stop-opacity:1;stop-color:#2bc4f3"
         offset="0"
         id="stop452" />
      <stop
         style="stop-opacity:1;stop-color:#00aeee"
         offset="0.5"
         id="stop454" />
      <stop
         style="stop-opacity:1;stop-color:#0095da"
         offset="1"
         id="stop456" />
    </linearGradient>
  </defs>
  <metadata
     id="metadata4953">
    <rdf:RDF>
      <cc:Work
         rdf:about="">
        <dc:format>image/svg+xml</dc:format>
        <dc:type
           rdf:resource="http://purl.org/dc/dcmitype/StillImage" />
        <dc:title />
      </cc:Work>
    </rdf:RDF>
  </metadata>
  <g
     transform="translate(-21.167823,-188.3046)"
     id="layer1"
     inkscape:groupmode="layer"
     inkscape:label="icon base"
     style="display:inline">
    <g
       style="fill:#559532;fill-opacity:1"
       transform="matrix(19.630952,0,0,19.630952,-86.48809,-19.840173)"
       id="g5867" />
    <rect
       style="opacity:0;fill:#f4f5f5"
       height="1520"
       width="727.93799"
       x="-1221.1118"
       y="-447.63873"
       id="rect7868" />
  </g>
  <g
     inkscape:groupmode="layer"
     id="layer2"
     inkscape:label="icon image"
     style="display:inline;opacity:0.98000004"
     transform="translate(-195.45345,-161.65616)">
    <g
       id="Layer_1"
       transform="translate(-801.12786,530.99855)">
      <rect
         style="opacity:0;fill:#f4f5f5"
         height="1520"
         width="727.93799"
         x="-219.98399"
         y="-731"
         id="rect9989" />
    </g>
    <g
       id="g4276"
       transform="matrix(3.6066937,0,0,3.6066937,303.96721,-572.2975)"
       style="fill:#ececec;fill-opacity:1">
      <g
         id="g438"
         transform="matrix(1.25,0,0,-1.25,-206.32427,592.90639)"
         style="fill:#ececec;fill-opacity:1">
        <g
           clip-path="url(#clipPath442)"
           id="g440"
           style="fill:#ececec;fill-opacity:1">
          <g
             id="g446"
             style="fill:#ececec;fill-opacity:1">
            <g
               id="g448"
               style="fill:#ececec;fill-opacity:1">
              <path
                 inkscape:connector-curvature="0"
                 id="path458"
                 style="fill:#ececec;stroke:none;fill-opacity:1"
                 d="m 140.99,296.045 0,-9.61 c 0,-18.64 15.112,-33.75 33.751,-33.75 l 0,0 15.237,0 0,9.607 c 0,18.641 -15.112,33.753 -33.752,33.753 l 0,0 -15.236,0 z" />
            </g>
          </g>
        </g>
      </g>
      <g
         id="g460"
         transform="matrix(1.25,0,0,-1.25,-206.32427,592.90639)"
         style="fill:#ececec;fill-opacity:1">
        <g
           clip-path="url(#clipPath464)"
           id="g462"
           style="fill:#ececec;fill-opacity:1">
          <g
             id="g468"
             style="fill:#ececec;fill-opacity:1">
            <g
               id="g470"
               style="fill:#ececec;fill-opacity:1">
              <path
                 inkscape:connector-curvature="0"
                 id="path480"
                 style="fill:#ececec;stroke:none;fill-opacity:1"
                 d="m 178.924,248.658 c -13.521,0 -24.485,-10.962 -24.485,-24.485 l 0,0 0,-6.972 11.052,0 c 13.523,0 24.487,10.963 24.487,24.484 l 0,0 0,6.973 -11.054,0 z" />
            </g>
          </g>
        </g>
      </g>
      <g
         id="g482"
         transform="matrix(1.25,0,0,-1.25,-206.32427,592.90639)"
         style="fill:#ececec;fill-opacity:1">
        <g
           clip-path="url(#clipPath486)"
           id="g484"
           style="fill:#ececec;fill-opacity:1">
          <g
             id="g490"
             style="fill:#ececec;fill-opacity:1">
            <g
               id="g492"
               style="fill:#ececec;fill-opacity:1">
              <path
                 inkscape:connector-curvature="0"
                 id="path502"
                 style="fill:#ececec;stroke:none;fill-opacity:1"
                 d="m 194.404,248.658 0,-4.831 c 0,-9.369 7.597,-16.966 16.965,-16.966 l 0,0 7.658,0 0,4.83 c 0,9.373 -7.596,16.967 -16.965,16.967 l 0,0 -7.658,0 z" />
            </g>
          </g>
        </g>
      </g>
      <g
         id="g504"
         transform="matrix(1.25,0,0,-1.25,-206.32427,592.90639)"
         style="fill:#ececec;fill-opacity:1">
        <g
           clip-path="url(#clipPath508)"
           id="g506"
           style="fill:#ececec;fill-opacity:1">
          <g
             id="g512"
             style="fill:#ececec;fill-opacity:1">
            <g
               id="g514"
               style="fill:#ececec;fill-opacity:1">
              <path
                 inkscape:connector-curvature="0"
                 id="path524"
                 style="fill:#ececec;stroke:none;fill-opacity:1"
                 d="m 240.209,311.527 c -25.297,0 -45.805,-20.507 -45.805,-45.802 l 0,0 0,-13.04 1,0 c 4.391,20.714 22.781,36.261 44.805,36.261 l 0,0 4.134,0 c -22.025,0 -40.413,-15.547 -44.804,-36.261 l 0,0 15.541,0 c 25.296,0 45.803,20.505 45.803,45.803 l 0,0 0,13.039 -20.674,0 z" />
            </g>
          </g>
        </g>
      </g>
      <g
         id="g526"
         transform="matrix(1.25,0,0,-1.25,-206.32427,592.90639)"
         style="fill:#ececec;fill-opacity:1">
        <g
           clip-path="url(#clipPath530)"
           id="g528"
           style="fill:#ececec;fill-opacity:1">
          <g
             id="g534"
             style="fill:#ececec;fill-opacity:1">
            <g
               id="g536"
               style="fill:#ececec;fill-opacity:1">
              <path
                 inkscape:connector-curvature="0"
                 id="path546"
                 style="fill:#ececec;stroke:none;fill-opacity:1"
                 d="m 199.539,252.685 5.873,0 c 3.891,17.232 16.906,30.997 33.708,35.954 l 0,0 c -19.66,-2.234 -35.542,-16.902 -39.581,-35.954" />
            </g>
          </g>
        </g>
      </g>
    </g>
  </g>
  <style
     type="text/css"
     id="style4988">
	.st0{fill:#3374BA;}
	.st1{opacity:0.2;fill:#2D3079;}
	.st2{opacity:0.2;fill:#FFFFFF;}
	.st3{opacity:0.1;fill:#FFFFFF;}
	.st4{fill:#FFFFFF;}
	.st5{opacity:0.2;}
	.st6{fill:#202020;}
</style>
</svg>
